<svg version="1.1" viewBox="0 0 348 57" class="logo svg-icon svg-fill" style="--width:130px; --height:28px;" data-v-70301425="" data-v-114032a2=""><defs><linearGradient id="svgicon_logo_a" x1="50.01%" x2="50.01%" y1="-.08%" y2="99.999%"><stop offset="0%" stop-color="#FF1DD9"></stop><stop offset="100%" stop-color="#FF4284"></stop></linearGradient><linearGradient id="svgicon_logo_b" x1="49.992%" x2="49.992%" y1="0%" y2="100.08%"><stop offset="0%" stop-color="#0150F7"></stop><stop offset="100%" stop-color="#4BAEFF"></stop></linearGradient></defs><g fill="none"><path pid="0" fill="#141414" d="M277.94 18.44v28.79H270V25.78h-7.64v.88c0 .503-.004.994-.013 1.475l-.022.948c-.009.311-.02.618-.033.92l-.044.892-.054.865-.031.422-.07.825-.08.798-.09.772a43.69 43.69 0 01-.099.746l-.109.72-.118.696c-.062.342-.127.674-.196.998l-.141.635-.074.308-.154.6c-.08.293-.163.578-.248.854l-.176.542c-.21.619-.436 1.192-.678 1.721l-.21.444c-1.003 2.021-2.247 3.363-3.655 4.187l-.304.168a7.871 7.871 0 01-2.425.794l-.34.048a9.455 9.455 0 01-.343.036l-.347.023c-.116.006-.233.01-.35.012l-.176.001a9.69 9.69 0 01-3.06-.41 7.56 7.56 0 01-1.05-.47l.01-7.34.7.17a9.41 9.41 0 001.35.12h.107l.21-.007.208-.014.202-.023a4.25 4.25 0 00.1-.014l.195-.035c.064-.014.128-.029.191-.046l.187-.056.182-.067c.39-.159.747-.402 1.069-.763l.146-.175c.24-.306.459-.684.656-1.15l.115-.29.11-.312.105-.334c.017-.058.034-.116.05-.176l.097-.37.092-.393.043-.206.083-.43.078-.458.036-.238.07-.498.062-.525.058-.554.051-.583.046-.613.04-.644.034-.675.027-.707.03-1.122.013-.791.006-.825.001-8.646h23.51zm20.86-.59v.03c7.948.011 14.389 6.452 14.4 14.4a23 23 0 01-.102 1.892l-.068.628-.12 1h-20.86c.858 2.584 3.113 4.882 7.313 4.996l.327.004c2.016.049 4-.505 5.7-1.59a7.55 7.55 0 001.69-1.367l.24-.273 4.12 5.58a15.09 15.09 0 01-3.17 2.35 18.73 18.73 0 01-8.69 2.346l-.48.004c-8.284.083-15.067-6.566-15.15-14.85-.082-8.18 6.398-14.895 14.536-15.144l.314-.006zm-148.98 0c8.246.154 14.821 6.936 14.719 15.183-.102 8.247-6.843 14.864-15.09 14.815-8.248-.051-14.908-6.75-14.909-14.998a15.11 15.11 0 0115.28-15zm81.4-.03c7.948.011 14.389 6.452 14.4 14.4a22.38 22.38 0 01-.18 2.52l-.12 1h-20.86c.858 2.584 3.113 4.882 7.313 4.996l.327.004a10.12 10.12 0 005.378-1.393l.322-.197a7.44 7.44 0 001.94-1.65l4.11 5.62a14.84 14.84 0 01-3.17 2.35 18.67 18.67 0 01-8.69 2.346l-.48.004c-8.284.08-15.065-6.57-15.145-14.855-.08-8.284 6.57-15.065 14.855-15.145zM106.63 6.1v17.63L122.49 6.1h10.58l-15.28 17.04 16.46 24.09h-10.29L111.92 29.6l-5.29 5.58v12.05h-8.82V6.1h8.82zm72.28 12.34v21.45h7.94V18.44h7.93v21.45h7.94V18.44h7.93v28.79h-39.67V18.44h7.93zm148.11 0v11.75l10.28-11.75h9.4l-10.58 12.04 11.17 16.75h-9.11l-7.35-11.16-3.81 4.4v6.76h-7.94V18.44h7.94zm-180.948 7.82a7.35 7.35 0 00-3.592 6.59 7.35 7.35 0 1014.69 0 7.35 7.35 0 00-11.098-6.59zm84.853-1.359a6.68 6.68 0 00-6.465 4.999h12.93a6.68 6.68 0 00-6.465-4.999zm67.59-.02a6.68 6.68 0 00-6.397 4.756l-.068.243h12.93a6.68 6.68 0 00-6.465-4.999zM305 5.8a4.52 4.52 0 014.4 4.41 4.41 4.41 0 11-8.81 0A4.52 4.52 0 01305 5.8zm-12.95-.01a4.52 4.52 0 014.4 4.41 4.41 4.41 0 11-8.81 0 4.52 4.52 0 014.41-4.41z"></path><path pid="1" fill="url(#svgicon_logo_a)" d="M51.89 28.37a10.29 10.29 0 00-5.12-8.88L44 17.88l-9.48 5.47L42 27.7a.76.76 0 01.38.67.75.75 0 01-.38.63L10.63 47.16a.75.75 0 01-.38.1.76.76 0 01-.77-.76V10.24a.78.78 0 01.38-.67.87.87 0 01.39-.1.76.76 0 01.38.11L25 17.88l9.48-5.47-19.12-11A10.25 10.25 0 000 10.24V46.5a10.25 10.25 0 0015.37 8.87l31.4-18.13a10.26 10.26 0 005.12-8.87z"></path><path pid="2" fill="url(#svgicon_logo_b)" d="M63.86 1.37a10.27 10.27 0 00-10.25 0l-31.4 18.12a10.25 10.25 0 000 17.75L25 38.86l9.48-5.47L27 29a.75.75 0 01-.38-.66.76.76 0 01.38-.64L58.35 9.57a.86.86 0 01.38-.1.77.77 0 01.39.11.75.75 0 01.38.66V46.5a.76.76 0 01-.77.76.75.75 0 01-.38-.1L44 38.86l-9.48 5.47 19.12 11A10.25 10.25 0 0069 46.5V10.24a10.26 10.26 0 00-5.14-8.87z"></path></g></svg>