<svg width="20" height="20" viewBox="0 0 20 20" fill="none" xmlns="http://www.w3.org/2000/svg">
<path fill-rule="evenodd" clip-rule="evenodd" d="M3.81237 3.03376C3.04266 3.16229 2.38811 3.72448 2.10461 4.50052L2.01337 4.75034L2.00424 10.1733C1.99416 16.1733 1.98296 15.8461 2.21445 16.3235C2.48486 16.881 2.98544 17.299 3.61585 17.4935C3.80923 17.5532 4.09998 17.556 10.0169 17.556H16.2154L16.4876 17.4599C17.169 17.219 17.6479 16.7459 17.8952 16.0689L17.9864 15.8191L17.9959 12.5694C18.0052 9.40929 18.0036 9.31233 17.9369 9.04886C17.773 8.40067 17.3685 7.89281 16.7859 7.60403L16.539 7.48163V6.89795C16.539 5.98772 16.4067 5.62129 15.8927 5.10709C15.2476 4.46194 15.2413 4.46085 12.1039 4.46085H9.58695L8.51274 3.77445C7.92187 3.39695 7.3826 3.06812 7.31431 3.0437C7.16913 2.99183 4.11541 2.98318 3.81237 3.03376ZM7.98638 5.2016L9.0942 5.9083L11.8034 5.92533C14.7565 5.94389 14.6257 5.93476 14.8413 6.13751C15.0221 6.30749 15.0547 6.4176 15.0684 6.90357L15.0811 7.35395L10.8972 7.36454C6.98154 7.37441 6.70022 7.37905 6.50899 7.43653C5.78448 7.65427 5.18905 8.2498 4.9722 8.97349C4.91536 9.16323 4.91022 9.42459 4.90003 12.6287L4.88907 16.0796L4.41614 16.0686C3.86992 16.0558 3.7293 15.9948 3.563 15.6984L3.47785 15.5466V10.2847V5.0228L3.55417 4.88003C3.63223 4.73395 3.78873 4.59261 3.93865 4.53281C3.98892 4.51275 4.59746 4.49834 5.45068 4.49705L6.87855 4.4949L7.98638 5.2016Z" fill="white"/>
</svg>
