<svg width="20" height="20" viewBox="0 0 20 20" fill="none" xmlns="http://www.w3.org/2000/svg">
<g clip-path="url(#clip0_152_4082)">
<path fill-rule="evenodd" clip-rule="evenodd" d="M9.02683 0.87717C1.70133 1.69783 -1.75793 10.3929 3.02039 15.9745C8.53656 22.4181 19.1428 18.527 19.1597 10.0536C19.1706 4.57006 14.425 0.272404 9.02683 0.87717ZM11.068 2.61615C16.0415 3.29862 18.9293 8.74283 16.7224 13.2762C13.9941 18.8808 5.96347 18.8653 3.26375 13.2504C0.679685 7.87611 5.13707 1.80233 11.068 2.61615ZM13.81 7.1635C13.7241 7.20678 12.6518 8.16276 11.4272 9.28799L9.20062 11.3338L8.14594 10.2875C7.04262 9.19299 6.99355 9.15557 6.66156 9.15557C6.06012 9.15557 5.64711 9.79248 5.88211 10.3576C5.95781 10.5396 8.49554 13.0974 8.7514 13.2496C8.97996 13.3855 9.31812 13.3927 9.55219 13.2667C9.80226 13.1321 14.8096 8.51975 14.9135 8.32822C15.2912 7.63229 14.5123 6.8101 13.81 7.1635Z" fill="white"/>
</g>
<defs>
<clipPath id="clip0_152_4082">
<rect width="20" height="20" fill="white"/>
</clipPath>
</defs>
</svg>
