<svg width="20" height="20" viewBox="0 0 20 20" fill="none" xmlns="http://www.w3.org/2000/svg">
<g id="finish" clip-path="url(#clip0_616_6366)">
<path id="flag (1) 1 (Traced)" fill-rule="evenodd" clip-rule="evenodd" d="M2.10387 0.105524C2.02563 0.150876 1.92453 0.253923 1.87926 0.334548L1.79688 0.481071V10.0212V19.5614L1.87961 19.7086C2.10559 20.1106 2.66004 20.1106 2.88602 19.7086L2.96875 19.5614V15.0843V10.6072H6.64508C10.8044 10.6072 10.51 10.6299 10.6985 10.2945L10.7812 10.1473V6.11498V2.08263L10.6985 1.93545C10.51 1.60009 10.8044 1.62279 6.64508 1.62279H2.96875V1.05193C2.96875 0.170251 2.63051 -0.199866 2.10387 0.105524ZM11.9531 6.85185C11.9531 10.7624 11.9576 10.725 11.4283 11.2542C10.9588 11.7238 10.7009 11.779 8.97906 11.779H7.65625V11.9397C7.65625 12.1521 7.78559 12.3745 7.96891 12.4776L8.11609 12.5603H12.9297H17.7433L17.8951 12.475C18.3399 12.225 18.3298 12.1696 17.4262 9.91381L16.687 8.0681L17.4262 6.2224C18.3298 3.96662 18.3399 3.91123 17.8951 3.66123L17.7433 3.57591H14.8482H11.9531V6.85185Z" fill="#467CF4"/>
</g>
<defs>
<clipPath id="clip0_616_6366">
<rect width="20" height="20" fill="white"/>
</clipPath>
</defs>
</svg>
