<svg width="20" height="20" viewBox="0 0 20 20" fill="none" xmlns="http://www.w3.org/2000/svg">
<g id="fist" clip-path="url(#clip0_616_6361)">
<path id="fist 1 (Traced)" fill-rule="evenodd" clip-rule="evenodd" d="M7.21212 0.038454C7.04201 0.109977 6.98056 0.19029 6.19013 1.37365L5.41408 2.53556L6.58587 3.1217C7.23037 3.44412 7.76388 3.70787 7.77142 3.70787C7.779 3.70787 8.10431 3.22853 8.49435 2.64271C9.47576 1.16857 9.47955 1.22228 8.34365 0.487048C7.59763 0.00415709 7.44115 -0.0578741 7.21212 0.038454ZM10.3363 2.13345C10.2163 2.19533 8.86392 4.10424 8.85427 4.22533C8.85185 4.25525 11.1959 5.4408 11.2145 5.41912C11.2202 5.41248 11.4927 5.00353 11.8199 4.51029L12.4149 3.61353L12.3986 3.41654C12.3738 3.11849 12.3029 3.04744 11.5347 2.55158C10.7477 2.04349 10.6063 1.9942 10.3363 2.13345ZM4.82623 3.70545C4.77123 3.72236 4.68724 3.75705 4.63951 3.78259C4.53619 3.83791 1.74861 8.00373 1.69884 8.17716C1.62517 8.43404 1.65169 8.47408 3.93447 11.5524C5.20962 13.2719 6.1749 14.6091 6.20072 14.6918C6.24197 14.824 6.19845 15.0248 5.67306 17.1262C5.00927 19.781 5.01005 19.7684 5.50486 19.9554C5.72896 20.0401 14.6676 20.0106 14.8278 19.9246C15.1329 19.761 15.1191 19.8512 15.141 17.875C15.1639 15.8047 15.1161 16.0022 15.6896 15.607C16.9494 14.739 17.3285 13.8612 17.3285 11.8122V10.9683L17.1625 11.1029C16.7158 11.4651 16.1267 11.6018 15.6082 11.4635C15.4909 11.4322 14.1492 10.8521 12.6266 10.1744C10.221 9.10365 9.83337 8.94224 9.66759 8.94224H9.47681L10.7268 11.4421C12.0807 14.1496 12.0749 14.1349 11.9086 14.4174C11.7462 14.6933 11.3574 14.777 11.0853 14.5947C10.956 14.508 10.8047 14.224 9.55529 11.7204L8.16876 8.94224H6.85634C5.5663 8.94224 5.54103 8.94072 5.37587 8.85338C4.97333 8.64052 4.95669 8.08548 5.34572 7.8483C5.46826 7.77357 5.54697 7.77064 7.44568 7.76966C9.81083 7.76845 9.61861 7.80709 9.98716 7.259C10.3207 6.76295 10.3594 6.50045 10.1345 6.25849C10.0324 6.14857 5.22693 3.73021 5.04333 3.69634C4.97888 3.68443 4.88119 3.68853 4.82623 3.70545ZM13.5004 4.22197C13.3388 4.32994 11.2215 7.46435 11.1495 7.70201C11.0344 8.08236 11.2083 8.26185 12.0498 8.63146C13.0578 9.07427 12.904 9.17795 14.2718 7.13353C15.6429 5.08427 15.6271 5.2083 14.6034 4.53877C13.9358 4.1022 13.7566 4.05072 13.5004 4.22197ZM16.5935 6.05447C16.3877 6.09802 16.314 6.19142 15.3629 7.61412C14.0647 9.55615 14.0652 9.5383 15.2931 10.0765C16.2914 10.5142 16.169 10.589 17.3555 8.8165C18.5457 7.03857 18.5395 7.08779 17.6447 6.5047C16.9209 6.03314 16.846 6.00103 16.5935 6.05447Z" fill="#1DBA6F"/>
</g>
<defs>
<clipPath id="clip0_616_6361">
<rect width="20" height="20" fill="white"/>
</clipPath>
</defs>
</svg>
