<svg width="52" height="20" viewBox="0 0 52 20" fill="none" xmlns="http://www.w3.org/2000/svg">
<g clip-path="url(#clip0_131_5049)">
<path d="M0.872559 19.9945H2.41702V15.8538H3.18097V19.9945H4.72175V15.1955H0.872559V19.9945ZM3.80317 15.8538H4.09771V19.3323H3.80317V15.8538ZM1.4966 15.8538H1.79298V19.3323H1.4966V15.8538ZM8.21382 15.1955H6.26622V19.9945H7.80884V19.2369H8.21382C8.46962 19.2453 8.7244 19.1992 8.96306 19.1014C9.20171 19.0037 9.41937 18.8562 9.60312 18.6677C9.78687 18.4793 9.93297 18.2537 10.0327 18.0043C10.1325 17.755 10.1839 17.487 10.1839 17.2162C10.1839 16.9454 10.1325 16.6774 10.0327 16.4281C9.93297 16.1787 9.78687 15.9531 9.60312 15.7647C9.41937 15.5762 9.20171 15.4287 8.96306 15.331C8.7244 15.2332 8.46962 15.1871 8.21382 15.1955ZM7.18479 19.3323H6.89026V15.8538H7.18479V19.3323ZM8.53229 18.5318C8.42841 18.561 8.32131 18.5754 8.21382 18.5747H7.80884V15.848H8.21382C8.32139 15.8479 8.42849 15.8629 8.53229 15.8928V18.5318ZM9.15449 18.1423V16.2921C9.37685 16.5426 9.50061 16.8735 9.50061 17.2172C9.50061 17.5609 9.37685 17.8917 9.15449 18.1423ZM37.8881 15.1955H35.9461V19.9945H37.4887V19.2369H37.8881C38.3844 19.2205 38.8552 19.0005 39.2008 18.6233C39.5464 18.2462 39.7396 17.7415 39.7396 17.2162C39.7396 16.6909 39.5464 16.1862 39.2008 15.809C38.8552 15.4319 38.3844 15.2118 37.8881 15.1955ZM36.8591 19.3323H36.5627V15.8538H36.8591V19.3323ZM38.2048 18.5318C38.1015 18.5609 37.995 18.5753 37.8881 18.5747H37.4813V15.848H37.8881C37.9951 15.848 38.1016 15.8631 38.2048 15.8928V18.5318ZM38.827 18.1423V16.2901C39.0503 16.5406 39.1746 16.8719 39.1746 17.2162C39.1746 17.5605 39.0503 17.8918 38.827 18.1423ZM21.3629 15.1975H19.2662C19.0104 15.1891 18.7556 15.2351 18.517 15.3329C18.2783 15.4307 18.0607 15.5782 17.8769 15.7666C17.6932 15.9551 17.5471 16.1807 17.4473 16.43C17.3475 16.6794 17.2961 16.9474 17.2961 17.2181C17.2961 17.4889 17.3475 17.7569 17.4473 18.0063C17.5471 18.2556 17.6932 18.4812 17.8769 18.6697C18.0607 18.8581 18.2783 19.0056 18.517 19.1034C18.7556 19.2012 19.0104 19.2472 19.2662 19.2388H19.546V19.9964H21.0886V19.2369H21.3703C21.8666 19.2205 22.3373 19.0005 22.6829 18.6233C23.0285 18.2462 23.2218 17.7415 23.2218 17.2162C23.2218 16.6909 23.0285 16.1862 22.6829 15.809C22.3373 15.4319 21.8666 15.2118 21.3703 15.1955M18.3255 18.1384C18.1032 17.8878 17.9794 17.557 17.9794 17.2133C17.9794 16.8696 18.1032 16.5388 18.3255 16.2882V18.1384ZM19.546 18.5747H19.2662C19.1593 18.5753 19.0529 18.5609 18.9496 18.5318V15.8986C19.0528 15.8689 19.1593 15.8538 19.2662 15.8538H19.546V18.5747ZM20.4664 19.3323H20.1701V15.8538H20.4664V19.3323ZM21.6888 18.5318C21.5855 18.5608 21.479 18.5752 21.3721 18.5747H21.0905V15.848H21.3721C21.4791 15.8481 21.5855 15.8632 21.6888 15.8928V18.5318ZM22.311 18.1423V16.2921C22.5346 16.542 22.6592 16.873 22.6592 17.2172C22.6592 17.5613 22.5346 17.8924 22.311 18.1423ZM30.3757 15.8577H31.5869V19.9984H33.1296V15.8538H34.339V15.1955H30.3738L30.3757 15.8577ZM32.2165 15.8577H32.5129V19.3362H32.2165V15.8577ZM49.4781 15.1994V16.2258L48.7123 17.5113V15.1955H47.1733V19.9945H48.716V18.7422L49.4799 17.4587V19.9906H51.0225V15.1955L49.4781 15.1994ZM48.0919 19.3362H47.7955V15.8538H48.0919V19.3362ZM50.3985 19.3362H50.0929V15.8538H50.3893L50.3985 19.3362ZM49.0215 13.8965V15.2384L49.8205 13.8965H49.0215ZM43.407 15.1994C42.9583 15.1994 42.5198 15.3402 42.1468 15.604C41.7738 15.8677 41.4831 16.2426 41.3115 16.6811C41.1399 17.1197 41.0951 17.6022 41.1828 18.0677C41.2704 18.5332 41.4866 18.9608 41.804 19.2963C42.1213 19.6318 42.5256 19.8601 42.9656 19.9525C43.4057 20.0449 43.8618 19.9971 44.2761 19.8152C44.6905 19.6333 45.0446 19.3254 45.2936 18.9306C45.5425 18.5357 45.6752 18.0716 45.6749 17.597C45.6739 16.9611 45.4346 16.3516 45.0094 15.9021C44.5843 15.4527 44.008 15.2 43.407 15.1994ZM43.407 19.3362C43.0818 19.3362 42.764 19.2342 42.4937 19.0431C42.2234 18.852 42.0127 18.5803 41.8882 18.2625C41.7638 17.9447 41.7313 17.595 41.7947 17.2577C41.8581 16.9203 42.0147 16.6104 42.2446 16.3671C42.4745 16.1239 42.7674 15.9583 43.0863 15.8912C43.4051 15.824 43.7357 15.8585 44.0361 15.9901C44.3364 16.1218 44.5932 16.3447 44.7738 16.6307C44.9544 16.9167 45.0508 17.253 45.0508 17.597C45.0508 17.8254 45.0083 18.0515 44.9257 18.2625C44.8431 18.4735 44.722 18.6653 44.5694 18.8268C44.4167 18.9883 44.2355 19.1164 44.0361 19.2038C43.8366 19.2912 43.6228 19.3362 43.407 19.3362ZM43.407 16.1596C43.1378 16.1596 42.8747 16.2441 42.651 16.4023C42.4272 16.5606 42.2529 16.7855 42.15 17.0486C42.0471 17.3117 42.0202 17.6012 42.0729 17.8804C42.1255 18.1597 42.2553 18.4161 42.4457 18.6173C42.6361 18.8185 42.8787 18.9555 43.1427 19.0108C43.4067 19.0661 43.6803 19.0373 43.9288 18.9281C44.1774 18.8188 44.3897 18.6341 44.539 18.3971C44.6882 18.1602 44.7677 17.8817 44.7673 17.597C44.7669 17.2156 44.6233 16.85 44.3683 16.5805C44.1132 16.311 43.7674 16.1596 43.407 16.1596ZM43.407 18.378C43.2613 18.378 43.119 18.3323 42.9979 18.2467C42.8768 18.1611 42.7824 18.0394 42.7267 17.897C42.671 17.7547 42.6564 17.598 42.6848 17.4469C42.7132 17.2958 42.7833 17.157 42.8863 17.048C42.9893 16.9391 43.1205 16.8649 43.2633 16.8348C43.4062 16.8048 43.5542 16.8202 43.6888 16.8792C43.8233 16.9381 43.9383 17.038 44.0192 17.1661C44.1001 17.2942 44.1433 17.4448 44.1433 17.5989C44.1433 17.8055 44.0657 18.0037 43.9276 18.1498C43.7896 18.2959 43.6023 18.378 43.407 18.378ZM27.0364 16.8199C27.1549 16.8199 27.2717 16.8501 27.3769 16.9081C27.482 16.9661 27.5723 17.0501 27.6402 17.1529L27.8243 17.4314L29.0558 16.4576L28.8717 16.1927C28.644 15.8604 28.3396 15.5954 27.9875 15.4231C27.6354 15.2508 27.2473 15.1769 26.8605 15.2085C26.4737 15.2402 26.1011 15.3763 25.7782 15.6038C25.4553 15.8314 25.193 16.1427 25.0163 16.5082C24.8396 16.8736 24.7545 17.2809 24.7691 17.691C24.7837 18.1012 24.8975 18.5006 25.0996 18.8509C25.3017 19.2013 25.5854 19.4909 25.9235 19.6922C26.2616 19.8934 26.6429 19.9995 27.0309 20.0003C27.3788 20.0015 27.7223 19.9174 28.0344 19.7545C28.3464 19.5916 28.6185 19.3544 28.8294 19.0616L29.0135 18.8084L27.8206 17.7684L27.6273 18.0566C27.5533 18.1644 27.4545 18.2503 27.3402 18.3062C27.2259 18.362 27.1 18.3859 26.9745 18.3756C26.8489 18.3653 26.728 18.3211 26.6232 18.2473C26.5185 18.1734 26.4333 18.0724 26.376 17.9538C26.3186 17.8353 26.2909 17.7031 26.2956 17.57C26.3003 17.4369 26.3371 17.3073 26.4026 17.1935C26.4681 17.0798 26.5601 16.9857 26.6698 16.9203C26.7794 16.8549 26.9031 16.8203 27.029 16.8199M27.029 19.0382C27.3506 19.0381 27.6618 18.9174 27.9071 18.6974L28.1299 18.8921C27.9316 19.0812 27.6928 19.2165 27.4342 19.2862C27.1755 19.3559 26.9047 19.358 26.6451 19.2923C26.3855 19.2266 26.1449 19.0951 25.944 18.9091C25.7431 18.7231 25.5881 18.4882 25.4921 18.2246C25.3962 17.9611 25.3623 17.6768 25.3934 17.3963C25.4244 17.1158 25.5195 16.8475 25.6704 16.6146C25.8213 16.3816 26.0235 16.191 26.2595 16.0592C26.4956 15.9273 26.7584 15.8582 27.0254 15.8577C27.4457 15.8593 27.8497 16.0299 28.1556 16.3349L27.9237 16.518C27.7588 16.3627 27.5607 16.2522 27.3465 16.1961C27.1323 16.1399 26.9083 16.1397 26.694 16.1955C26.4797 16.2513 26.2815 16.3615 26.1164 16.5165C25.9513 16.6715 25.8243 16.8666 25.7464 17.0851C25.6685 17.3036 25.642 17.5388 25.6692 17.7706C25.6964 18.0023 25.7765 18.2235 25.9026 18.4152C26.0287 18.6069 26.1969 18.7632 26.3929 18.8707C26.5888 18.9783 26.8065 19.0337 27.0272 19.0324M13.7032 16.1596C13.4341 16.1596 13.171 16.2441 12.9472 16.4023C12.7235 16.5606 12.5491 16.7855 12.4462 17.0486C12.3433 17.3117 12.3165 17.6012 12.3691 17.8804C12.4217 18.1597 12.5515 18.4161 12.7419 18.6173C12.9324 18.8185 13.1749 18.9555 13.4389 19.0108C13.7029 19.0661 13.9765 19.0373 14.2251 18.9281C14.4736 18.8188 14.686 18.6341 14.8352 18.3971C14.9845 18.1602 15.0639 17.8817 15.0636 17.597C15.0631 17.2156 14.9196 16.85 14.6645 16.5805C14.4094 16.311 14.0637 16.1596 13.7032 16.1596ZM13.7032 18.378C13.5576 18.378 13.4152 18.3323 13.2941 18.2467C13.173 18.1611 13.0786 18.0394 13.0229 17.897C12.9672 17.7547 12.9526 17.598 12.981 17.4469C13.0094 17.2958 13.0796 17.157 13.1825 17.048C13.2855 16.9391 13.4167 16.8649 13.5596 16.8348C13.7024 16.8048 13.8504 16.8202 13.985 16.8792C14.1195 16.9381 14.2345 17.038 14.3154 17.1661C14.3964 17.2942 14.4395 17.4448 14.4395 17.5989C14.4395 17.8055 14.362 18.0037 14.2239 18.1498C14.0858 18.2959 13.8985 18.378 13.7032 18.378ZM13.7032 15.1994C13.2545 15.1991 12.8158 15.3395 12.4425 15.603C12.0693 15.8665 11.7783 16.2412 11.6064 16.6798C11.4346 17.1183 11.3895 17.6009 11.4769 18.0665C11.5644 18.5322 11.7804 18.9599 12.0977 19.2956C12.415 19.6313 12.8193 19.8598 13.2594 19.9524C13.6995 20.0449 14.1556 19.9972 14.5701 19.8153C14.9846 19.6335 15.3388 19.3257 15.5878 18.9308C15.8369 18.5359 15.9696 18.0717 15.9693 17.597C15.9678 16.9616 15.7286 16.3526 15.3039 15.9034C14.8793 15.4541 14.3038 15.201 13.7032 15.1994ZM13.7032 19.3362C13.3781 19.3362 13.0602 19.2342 12.7899 19.0431C12.5196 18.852 12.3089 18.5803 12.1845 18.2625C12.06 17.9447 12.0275 17.595 12.0909 17.2577C12.1543 16.9203 12.3109 16.6104 12.5408 16.3671C12.7707 16.1239 13.0636 15.9583 13.3825 15.8912C13.7014 15.824 14.0319 15.8585 14.3323 15.9901C14.6327 16.1218 14.8894 16.3447 15.07 16.6307C15.2507 16.9167 15.3471 17.253 15.3471 17.597C15.3466 18.0581 15.1732 18.5001 14.8651 18.8262C14.5569 19.1523 14.139 19.3357 13.7032 19.3362Z" fill="#F4B13E"/>
<path d="M50.7077 11.156H42.4442C43.4677 10.1822 44.1009 8.37087 43.3351 7.48665C42.862 6.94131 41.8753 6.72123 40.9899 7.33278L40.7653 6.95884H39.2687C37.8329 10.1471 34.9354 11.9292 33.9892 10.412L33.9634 10.3652C35.3845 10.4509 37.6267 9.13628 36.4854 7.42238C35.9331 6.58295 33.7499 6.58685 32.719 7.8119C32.2775 8.3152 31.9956 8.95186 31.9127 9.63292C31.5531 9.42968 31.216 9.18472 30.9076 8.90257C31.2644 7.9753 31.4433 6.98224 31.4341 5.98114C31.4341 2.82989 28.5661 0.63103 25.8214 0.63103C25.801 2.84462 26.4749 5.00289 27.7377 6.76797L27.8794 6.96274H27.3088C26.9047 7.21122 26.5605 7.55546 26.3034 7.96843C26.0463 8.38139 25.8832 8.85181 25.8269 9.34273C25.2378 9.84716 24.0744 10.6106 23.802 10.5853C23.4338 10.5541 23.813 9.72641 23.813 9.72641L25.0593 6.95884H23.2516L22.6091 8.38645C22.5908 8.41119 22.5777 8.43972 22.5705 8.47019C22.0403 9.65629 20.9137 10.6301 20.5566 10.597C20.1995 10.5639 20.5676 9.74199 20.5676 9.74199L21.8139 6.97053H20.0062L18.9274 9.34273C18.2298 10.0263 17.1897 10.9359 16.7737 10.7509C16.4055 10.595 16.8363 9.6972 16.8363 9.6972L20.9818 0C12.698 0 13.6719 11.1501 7.7646 11.1501H1.29221C0.949236 11.1501 0.620309 11.2943 0.377789 11.5509C0.135269 11.8074 -0.000976562 12.1554 -0.000976562 12.5183C-0.000976562 12.8812 0.135269 13.2292 0.377789 13.4858C0.620309 13.7424 0.949236 13.8865 1.29221 13.8865H50.7077C51.0507 13.8865 51.3796 13.7424 51.6221 13.4858C51.8646 13.2292 52.0009 12.8812 52.0009 12.5183C52.0009 12.1554 51.8646 11.8074 51.6221 11.5509C51.3796 11.2943 51.0507 11.1501 50.7077 11.1501M40.4763 8.64938C40.8537 7.8898 41.6415 7.36589 41.9711 7.79437C42.6871 8.73118 41.0341 11.3001 40.4984 10.8736C40.2204 10.6788 40.6438 9.75173 40.6438 9.75173H39.9811L40.4763 8.64938ZM35.8355 7.84501C36.2847 8.3845 35.0495 9.66993 33.7793 9.87053C33.5198 8.49746 35.2741 7.17113 35.8355 7.84501ZM27.5886 1.74701C28.9913 1.9671 30.707 3.40054 30.707 6.06294C30.7094 6.84467 30.5913 7.62159 30.3572 8.36308C28.9121 6.79329 27.5812 4.26139 27.596 1.74117M28.6195 7.82943C29.0639 8.30037 29.5496 8.72557 30.07 9.09927C29.3245 10.6574 28.1298 11.2884 27.596 10.7216C26.9369 10.0263 27.7027 8.44293 28.6195 7.82943ZM0.638714 12.5251C0.638714 12.3375 0.709057 12.1574 0.83432 12.0245C0.959584 11.8916 1.12955 11.8167 1.30694 11.8162H7.72226C15.2347 11.8162 15.0967 3.10061 18.7507 0.862797L15.15 9.34273C15.15 9.34273 14.4947 10.9826 15.4096 11.5766C16.3245 12.1707 17.6186 11.2767 18.5611 10.4081C18.4617 10.8872 18.4396 11.4559 18.7967 11.7013C19.4705 12.1609 20.7904 11.45 21.7789 10.5678C21.709 11.004 21.7292 11.4734 22.0458 11.6896C22.8392 12.231 24.8071 10.8775 25.8269 10.0517C25.8544 10.3252 25.9339 10.59 26.0604 10.8302C26.1869 11.0705 26.3579 11.2813 26.5632 11.4501C27.6935 12.3479 29.5749 11.5435 30.637 9.4849C31.0433 9.73315 31.4688 9.94426 31.909 10.1159C31.9468 10.5016 32.1063 10.8625 32.3619 11.1404C33.4885 12.3498 36.0436 12.0129 37.9948 9.74589L36.4301 13.238H1.29221C1.11514 13.2375 0.945453 13.1628 0.820242 13.0303C0.695031 12.8978 0.624473 12.7183 0.623987 12.531M50.7077 13.238H38.4403L39.6939 10.4061C39.7455 10.7859 39.8651 11.3254 40.3695 11.6273C40.6003 11.771 40.8662 11.8388 41.1335 11.822H41.1243H50.6966C50.7875 11.817 50.8783 11.8316 50.9636 11.8649C51.049 11.8982 51.127 11.9495 51.193 12.0157C51.2589 12.082 51.3115 12.1617 51.3474 12.2501C51.3833 12.3386 51.4018 12.4338 51.4018 12.53C51.4018 12.6262 51.3833 12.7214 51.3474 12.8099C51.3115 12.8983 51.2589 12.978 51.193 13.0443C51.127 13.1105 51.049 13.1618 50.9636 13.1951C50.8783 13.2284 50.7875 13.243 50.6966 13.238" fill="white"/>
</g>
<defs>
<clipPath id="clip0_131_5049">
<rect width="52" height="20" fill="white"/>
</clipPath>
</defs>
</svg>
