<svg width="84" height="32" viewBox="0 0 84 32" fill="none" xmlns="http://www.w3.org/2000/svg">
<g clip-path="url(#clip0_441_7546)">
<path d="M1.396 31.9902H3.86714V25.3652H5.08945V31.9902H7.55471V24.3119H1.396V31.9902ZM6.08498 25.3652H6.55624V30.9307H6.08498V25.3652ZM2.39447 25.3652H2.86867V30.9307H2.39447V25.3652ZM13.142 24.3119H10.0258V31.9902H12.494V30.778H13.142C13.5513 30.7914 13.9589 30.7178 14.3408 30.5613C14.7226 30.4049 15.0709 30.1689 15.3649 29.8674C15.6589 29.5658 15.8927 29.2049 16.0523 28.8059C16.2119 28.407 16.2942 27.9782 16.2942 27.5449C16.2942 27.1117 16.2119 26.6829 16.0523 26.284C15.8927 25.885 15.6589 25.5241 15.3649 25.2225C15.0709 24.921 14.7226 24.685 14.3408 24.5286C13.9589 24.3721 13.5513 24.2984 13.142 24.3119ZM11.4956 30.9307H11.0243V25.3652H11.4956V30.9307ZM13.6516 29.6499C13.4854 29.6967 13.314 29.7197 13.142 29.7185H12.494V25.3558H13.142C13.3141 25.3556 13.4855 25.3797 13.6516 25.4275V29.6499ZM14.6471 29.0267V26.0663C15.0029 26.4673 15.2009 26.9966 15.2009 27.5465C15.2009 28.0964 15.0029 28.6257 14.6471 29.0267ZM60.6209 24.3119H57.5136V31.9902H59.9818V30.778H60.6209C61.4149 30.7519 62.1682 30.3998 62.7211 29.7964C63.2741 29.1929 63.5833 28.3854 63.5833 27.5449C63.5833 26.7045 63.2741 25.897 62.7211 25.2935C62.1682 24.69 61.4149 24.338 60.6209 24.3119ZM58.9745 30.9307H58.5003V25.3652H58.9745V30.9307ZM61.1275 29.6499C60.9623 29.6965 60.7919 29.7195 60.6209 29.7185H59.97V25.3558H60.6209C60.792 25.3558 60.9624 25.3799 61.1275 25.4275V29.6499ZM62.123 29.0267V26.0632C62.4803 26.464 62.6793 26.994 62.6793 27.5449C62.6793 28.0958 62.4803 28.6259 62.123 29.0267ZM34.1806 24.315H30.8258C30.4166 24.3016 30.0089 24.3752 29.6271 24.5317C29.2452 24.6881 28.897 24.9241 28.603 25.2256C28.309 25.5272 28.0752 25.8881 27.9156 26.2871C27.756 26.686 27.6737 27.1148 27.6737 27.5481C27.6737 27.9813 27.756 28.4101 27.9156 28.809C28.0752 29.208 28.309 29.5689 28.603 29.8705C28.897 30.172 29.2452 30.408 29.6271 30.5645C30.0089 30.7209 30.4166 30.7946 30.8258 30.7811H31.2735V31.9933H33.7417V30.778H34.1924C34.9864 30.7519 35.7396 30.3998 36.2926 29.7964C36.8455 29.1929 37.1548 28.3854 37.1548 27.5449C37.1548 26.7045 36.8455 25.897 36.2926 25.2935C35.7396 24.69 34.9864 24.338 34.1924 24.3119M29.3208 29.0205C28.965 28.6195 28.767 28.0902 28.767 27.5403C28.767 26.9903 28.965 26.461 29.3208 26.0601V29.0205ZM31.2735 29.7185H30.8258C30.6549 29.7195 30.4845 29.6965 30.3192 29.6499V25.4368C30.4844 25.3893 30.6547 25.3652 30.8258 25.3652H31.2735V29.7185ZM32.7462 30.9307H32.272V25.3652H32.7462V30.9307ZM34.7019 29.6499C34.5366 29.6963 34.3663 29.7193 34.1953 29.7185H33.7447V25.3558H34.1953C34.3664 25.356 34.5368 25.3801 34.7019 25.4275V29.6499ZM35.6974 29.0267V26.0663C36.0552 26.4662 36.2545 26.9959 36.2545 27.5465C36.2545 28.0971 36.0552 28.6268 35.6974 29.0267ZM48.601 25.3714H50.539V31.9964H53.0072V25.3652H54.9423V24.3119H48.598L48.601 25.3714ZM51.5463 25.3714H52.0205V30.9369H51.5463V25.3714ZM79.1648 24.3181V25.9604L77.9395 28.017V24.3119H75.4772V31.9902H77.9454V29.9865L79.1677 27.9329V31.984H81.6359V24.3119L79.1648 24.3181ZM76.9469 30.9369H76.4727V25.3652H76.9469V30.9369ZM80.6375 30.9369H80.1485V25.3652H80.6227L80.6375 30.9369ZM78.4343 22.2334V24.3804L79.7126 22.2334H78.4343ZM69.451 24.3181C68.7332 24.3181 68.0316 24.5434 67.4348 24.9654C66.838 25.3874 66.3729 25.9871 66.0983 26.6888C65.8238 27.3905 65.7521 28.1626 65.8923 28.9074C66.0326 29.6522 66.3785 30.3363 66.8862 30.8731C67.394 31.4099 68.0409 31.7753 68.7449 31.923C69.449 32.0708 70.1787 31.9943 70.8417 31.7033C71.5047 31.4122 72.0712 30.9197 72.4696 30.2879C72.868 29.6562 73.0803 28.9136 73.0797 28.1542C73.0781 27.1367 72.6953 26.1615 72.015 25.4424C71.3347 24.7233 70.4127 24.319 69.451 24.3181ZM69.451 30.9369C68.9308 30.9369 68.4223 30.7737 67.9898 30.4679C67.5573 30.1622 67.2201 29.7276 67.0211 29.2191C66.822 28.7106 66.7699 28.1511 66.8714 27.6113C66.9729 27.0715 67.2234 26.5756 67.5912 26.1864C67.9591 25.7973 68.4277 25.5322 68.9379 25.4249C69.4481 25.3175 69.977 25.3726 70.4576 25.5832C70.9382 25.7938 71.349 26.1505 71.638 26.6081C71.927 27.0658 72.0812 27.6038 72.0812 28.1542C72.0812 28.5196 72.0132 28.8815 71.881 29.2191C71.7489 29.5567 71.5551 29.8635 71.3109 30.1219C71.0666 30.3803 70.7767 30.5852 70.4576 30.7251C70.1385 30.8649 69.7965 30.9369 69.451 30.9369ZM69.451 25.8544C69.0204 25.8544 68.5995 25.9895 68.2415 26.2427C67.8835 26.4959 67.6045 26.8557 67.4398 27.2767C67.2752 27.6977 67.2323 28.1609 67.3165 28.6077C67.4007 29.0545 67.6083 29.4648 67.913 29.7867C68.2177 30.1087 68.6058 30.3278 69.0282 30.4163C69.4506 30.5048 69.8884 30.4587 70.286 30.284C70.6837 30.1092 71.0235 29.8135 71.2623 29.4344C71.5011 29.0553 71.6282 28.6098 71.6277 28.1542C71.6269 27.5439 71.3972 26.959 70.9891 26.5278C70.581 26.0966 70.0278 25.8544 69.451 25.8544ZM69.451 29.4038C69.218 29.4038 68.9903 29.3306 68.7965 29.1937C68.6028 29.0567 68.4518 28.862 68.3626 28.6343C68.2734 28.4065 68.2501 28.1559 68.2955 27.9141C68.341 27.6723 68.4532 27.4502 68.618 27.2759C68.7827 27.1016 68.9927 26.9828 69.2212 26.9347C69.4497 26.8867 69.6866 26.9113 69.9019 27.0057C70.1172 27.1 70.3012 27.2598 70.4306 27.4648C70.5601 27.6698 70.6292 27.9108 70.6292 28.1573C70.6292 28.4879 70.5051 28.8049 70.2841 29.0387C70.0632 29.2724 69.7635 29.4038 69.451 29.4038ZM43.2581 26.9108C43.4478 26.9108 43.6347 26.9592 43.8029 27.052C43.9711 27.1448 44.1156 27.2791 44.2242 27.4437L44.5187 27.8893L46.4892 26.3312L46.1946 25.9074C45.8304 25.3756 45.3432 24.9516 44.7798 24.6759C44.2165 24.4002 43.5956 24.282 42.9768 24.3327C42.3579 24.3833 41.7616 24.6011 41.245 24.9651C40.7284 25.3292 40.3086 25.8274 40.026 26.4121C39.7433 26.9968 39.6071 27.6484 39.6304 28.3047C39.6538 28.961 39.8358 29.5999 40.1592 30.1605C40.4826 30.7211 40.9365 31.1845 41.4775 31.5065C42.0185 31.8285 42.6286 31.9982 43.2493 31.9995C43.806 32.0015 44.3556 31.8669 44.8549 31.6063C45.3542 31.3457 45.7896 30.9661 46.1269 30.4975L46.4214 30.0924L44.5128 28.4284L44.2036 28.8896C44.0852 29.062 43.9271 29.1995 43.7442 29.2889C43.5613 29.3782 43.3599 29.4165 43.159 29.4C42.9582 29.3835 42.7647 29.3128 42.5971 29.1947C42.4294 29.0765 42.2932 28.9149 42.2015 28.7252C42.1097 28.5355 42.0654 28.324 42.0729 28.111C42.0804 27.8981 42.1393 27.6907 42.2441 27.5087C42.3489 27.3267 42.4961 27.1762 42.6716 27.0715C42.847 26.9668 43.0449 26.9115 43.2463 26.9108M43.2463 30.4601C43.7609 30.46 44.2587 30.2668 44.6513 29.9148L45.0077 30.2264C44.6905 30.529 44.3084 30.7454 43.8946 30.8569C43.4807 30.9685 43.0474 30.9718 42.632 30.8667C42.2167 30.7616 41.8317 30.5512 41.5103 30.2536C41.1889 29.956 40.9408 29.5801 40.7873 29.1585C40.6338 28.7368 40.5796 28.2819 40.6293 27.8332C40.679 27.3844 40.8311 26.9551 41.0725 26.5824C41.314 26.2096 41.6375 25.9046 42.0152 25.6937C42.3929 25.4827 42.8134 25.3721 43.2405 25.3714C43.913 25.374 44.5595 25.6469 45.0489 26.1349L44.6778 26.4278C44.414 26.1794 44.0971 26.0026 43.7543 25.9127C43.4115 25.8229 43.0532 25.8226 42.7103 25.9119C42.3674 26.0012 42.0502 26.1774 41.7861 26.4254C41.5219 26.6734 41.3188 26.9856 41.1941 27.3352C41.0695 27.6847 41.0271 28.0612 41.0707 28.4319C41.1142 28.8027 41.2424 29.1567 41.4441 29.4634C41.6458 29.77 41.915 30.0202 42.2285 30.1922C42.5419 30.3642 42.8903 30.453 43.2434 30.4508M21.925 25.8544C21.4944 25.8544 21.0735 25.9895 20.7155 26.2427C20.3575 26.4959 20.0785 26.8557 19.9138 27.2767C19.7492 27.6977 19.7062 28.1609 19.7905 28.6077C19.8747 29.0545 20.0823 29.4648 20.387 29.7867C20.6917 30.1087 21.0798 30.3278 21.5022 30.4163C21.9246 30.5048 22.3623 30.4587 22.76 30.284C23.1577 30.1092 23.4974 29.8135 23.7362 29.4344C23.9751 29.0553 24.1022 28.6098 24.1016 28.1542C24.1008 27.5439 23.8712 26.959 23.4631 26.5278C23.055 26.0966 22.5018 25.8544 21.925 25.8544ZM21.925 29.4038C21.692 29.4038 21.4642 29.3306 21.2705 29.1937C21.0767 29.0567 20.9257 28.862 20.8366 28.6343C20.7474 28.4065 20.7241 28.1559 20.7695 27.9141C20.815 27.6723 20.9272 27.4502 21.092 27.2759C21.2567 27.1016 21.4666 26.9828 21.6952 26.9347C21.9237 26.8867 22.1606 26.9113 22.3759 27.0057C22.5912 27.1 22.7752 27.2598 22.9046 27.4648C23.0341 27.6698 23.1032 27.9108 23.1032 28.1573C23.1032 28.4879 22.979 28.8049 22.7581 29.0387C22.5371 29.2724 22.2375 29.4038 21.925 29.4038ZM21.925 24.3181C21.2071 24.3175 20.5051 24.5422 19.9079 24.9638C19.3108 25.3855 18.8452 25.985 18.5702 26.6867C18.2952 27.3883 18.2231 28.1605 18.363 28.9055C18.5029 29.6505 18.8486 30.3349 19.3562 30.872C19.8639 31.4091 20.5107 31.7748 21.2149 31.9228C21.9191 32.0708 22.6489 31.9945 23.3121 31.7036C23.9752 31.4126 24.5419 30.9201 24.9404 30.2882C25.3389 29.6564 25.5513 28.9137 25.5507 28.1542C25.5484 27.1375 25.1657 26.1633 24.4862 25.4444C23.8068 24.7255 22.8859 24.3206 21.925 24.3181ZM21.925 30.9369C21.4048 30.9369 20.8963 30.7737 20.4638 30.4679C20.0312 30.1622 19.6941 29.7276 19.495 29.2191C19.296 28.7106 19.2439 28.1511 19.3454 27.6113C19.4469 27.0715 19.6974 26.5756 20.0652 26.1864C20.433 25.7973 20.9017 25.5322 21.4119 25.4249C21.9221 25.3175 22.451 25.3726 22.9316 25.5832C23.4122 25.7938 23.8229 26.1505 24.1119 26.6081C24.401 27.0658 24.5552 27.6038 24.5552 28.1542C24.5544 28.8919 24.2771 29.5993 23.784 30.121C23.2909 30.6426 22.6224 30.9361 21.925 30.9369Z" fill="#F4B13E"/>
<path d="M81.1324 17.8495H67.9107C69.5484 16.2914 70.5616 13.3934 69.3363 11.9786C68.5793 11.1061 67.0006 10.754 65.5839 11.7325L65.2246 11.1341H62.83C60.5327 16.2353 55.8967 19.0867 54.3828 16.6592L54.3416 16.5844C56.6154 16.7215 60.2028 14.618 58.3767 11.8758C57.4931 10.5327 53.9999 10.539 52.3505 12.499C51.6441 13.3043 51.193 14.323 51.0604 15.4127C50.4851 15.0875 49.9457 14.6955 49.4523 14.2441C50.0231 12.7605 50.3095 11.1716 50.2947 9.56982C50.2947 4.52783 45.7058 1.00965 41.3143 1.00965C41.2817 4.5514 42.36 8.00463 44.3804 10.8288L44.6072 11.1404H43.6941C43.0476 11.5379 42.4969 12.0887 42.0855 12.7495C41.6741 13.4102 41.4132 14.1629 41.3231 14.9484C40.3806 15.7555 38.5192 16.977 38.0833 16.9365C37.4942 16.8866 38.1009 15.5623 38.1009 15.5623L40.0949 11.1341H37.2026L36.1747 13.4183C36.1454 13.4579 36.1243 13.5036 36.1128 13.5523C35.2646 15.4501 33.462 17.0082 32.8906 16.9552C32.3192 16.9022 32.9083 15.5872 32.9083 15.5872L34.9023 11.1528H32.01L30.284 14.9484C29.1677 16.0421 27.5036 17.4974 26.838 17.2014C26.2489 16.9521 26.9381 15.5155 26.9381 15.5155L33.571 0C20.317 0 21.8751 17.8402 12.4235 17.8402H2.06764C1.51888 17.8402 0.992592 18.0708 0.60456 18.4814C0.216528 18.8919 -0.00146484 19.4487 -0.00146484 20.0293C-0.00146484 20.6099 0.216528 21.1667 0.60456 21.5773C0.992592 21.9878 1.51888 22.2184 2.06764 22.2184H81.1324C81.6812 22.2184 82.2074 21.9878 82.5955 21.5773C82.9835 21.1667 83.2015 20.6099 83.2015 20.0293C83.2015 19.4487 82.9835 18.8919 82.5955 18.4814C82.2074 18.0708 81.6812 17.8402 81.1324 17.8402M64.7622 13.839C65.366 12.6237 66.6266 11.7854 67.1538 12.471C68.2995 13.9699 65.6546 18.0801 64.7975 17.3977C64.3528 17.0861 65.0302 15.6028 65.0302 15.6028H63.9699L64.7622 13.839ZM57.337 12.552C58.0556 13.4152 56.0793 15.4719 54.047 15.7929C53.6317 13.5959 56.4386 11.4738 57.337 12.552ZM44.1418 2.79522C46.3862 3.14735 49.1312 5.44087 49.1312 9.7007C49.1351 10.9515 48.9461 12.1945 48.5716 13.3809C46.2595 10.8693 44.1301 6.81822 44.1536 2.78587M45.7912 12.5271C46.5023 13.2806 47.2794 13.9609 48.1122 14.5588C46.9193 17.0518 45.0078 18.0614 44.1536 17.1546C43.0992 16.0421 44.3244 13.5087 45.7912 12.5271ZM1.02204 20.0402C1.02204 19.7399 1.13459 19.4519 1.33501 19.2393C1.53543 19.0266 1.80737 18.9067 2.0912 18.9059H12.3557C24.3757 18.9059 24.1548 4.96098 30.0013 1.38047L24.2402 14.9484C24.2402 14.9484 23.1916 17.5722 24.6555 18.5226C26.1193 19.4731 28.1899 18.0427 29.6979 16.6529C29.5388 17.4195 29.5035 18.3294 30.0749 18.7221C31.1529 19.4575 33.2647 18.3201 34.8463 16.9084C34.7344 17.6065 34.7668 18.3575 35.2734 18.7034C36.5429 19.5697 39.6914 17.4039 41.3231 16.0827C41.3672 16.5203 41.4943 16.944 41.6967 17.3284C41.8991 17.7128 42.1728 18.0501 42.5013 18.3201C44.3097 19.7566 47.3199 18.4697 49.0193 15.1758C49.6693 15.573 50.3502 15.9108 51.0546 16.1855C51.115 16.8025 51.3702 17.38 51.7791 17.8246C53.5817 19.7598 57.6698 19.2207 60.7919 15.5934L58.2883 21.1807H2.06764C1.78432 21.1799 1.51282 21.0605 1.31249 20.8485C1.11215 20.6366 0.999255 20.3493 0.998478 20.0496M81.1324 21.1807H61.5046L63.5104 16.6498C63.5929 17.2575 63.7843 18.1206 64.5913 18.6037C64.9605 18.8335 65.386 18.942 65.8137 18.9153H65.7989H81.1147C81.26 18.9072 81.4054 18.9305 81.5419 18.9838C81.6784 19.0371 81.8033 19.1192 81.9089 19.2252C82.0144 19.3312 82.0985 19.4588 82.1559 19.6002C82.2134 19.7417 82.243 19.894 82.243 20.048C82.243 20.202 82.2134 20.3543 82.1559 20.4958C82.0985 20.6372 82.0144 20.7648 81.9089 20.8708C81.8033 20.9768 81.6784 21.0589 81.5419 21.1122C81.4054 21.1655 81.26 21.1888 81.1147 21.1807" fill="black"/>
</g>
<defs>
<clipPath id="clip0_441_7546">
<rect width="83.2" height="32" fill="white"/>
</clipPath>
</defs>
</svg>
