<svg width="20" height="20" viewBox="0 0 20 20" fill="none" xmlns="http://www.w3.org/2000/svg">
<path fill-rule="evenodd" clip-rule="evenodd" d="M12.605 1.82951L12.026 2.69846L12.1477 2.77825C13.7476 3.82684 14.45 5.80953 13.8266 7.51765C13.5894 8.16748 13.3757 8.46299 12.4999 9.3517C12.0198 9.83898 11.7052 10.1946 11.7327 10.2192C11.7582 10.242 12.0342 10.3332 12.3459 10.4217C13.8748 10.8559 14.4494 11.084 15.1279 11.5263C16.6201 12.499 17.6485 14.2683 17.8456 16.202L17.8795 16.5347H18.9397H20L19.9694 16.0693C19.7968 13.4425 18.1454 10.7705 15.9186 9.51523C15.702 9.39315 15.4944 9.27516 15.4571 9.25308C15.4029 9.22095 15.4254 9.14145 15.5696 8.85515C16.8831 6.24699 16.049 3.02601 13.5855 1.19334C13.1803 0.891911 13.2676 0.835332 12.605 1.82951ZM7.14634 1.87249C3.74764 2.51472 2.5028 6.67379 4.99623 9.05604C7.31426 11.2707 11.1154 10.1914 11.9842 7.07192C12.1369 6.52387 12.1091 5.34349 11.9309 4.8048C11.2415 2.72103 9.21819 1.48102 7.14634 1.87249ZM8.26088 3.9672C9.75377 4.24586 10.4646 6.00569 9.58196 7.23821C8.68281 8.49384 6.71495 8.33244 6.03294 6.94708C5.27671 5.41096 6.58937 3.65528 8.26088 3.9672ZM5.64315 11.2935C2.31753 11.6859 0.0366189 14.3156 0.00709711 17.7914L0 18.6293H1.05963H2.11926L2.14962 17.6929C2.22197 15.4628 3.42517 13.9335 5.47065 13.4718C6.0361 13.3442 10.0062 13.3808 10.4977 13.5182C12.4971 14.0771 13.5888 15.5552 13.6629 17.8038L13.6909 18.6539H14.7501H15.8094L15.781 17.6805C15.6868 14.4405 13.7975 12.0889 10.7195 11.3808C10.3653 11.2993 6.20081 11.2277 5.64315 11.2935Z" fill="#9A52DF"/>
</svg>
