<svg width="592" height="658" viewBox="0 0 592 658" fill="none" xmlns="http://www.w3.org/2000/svg">
<path d="M592 628.553L582.326 646.285L564.687 655.948L568.703 658.164H522.598L518.605 655.948L566.041 629.994L592 582.607V628.553ZM592 580.768L565.375 629.307L516.852 655.904L520.845 658.12H476.249L472.255 655.904L549.644 613.482L592 536.174V580.768ZM592 533.004L548.491 612.396L469.016 655.859L473.032 658.076H429.944L425.928 655.859H426.084L533.293 597.28L592 490.028V533.004ZM592 485.218C592 485.218 531.606 595.507 531.562 595.529L421.203 655.859L425.196 658.076H383.684L379.69 655.859L379.912 655.727L516.807 580.768L591.933 443.616L592 485.218ZM592 437.411C592 437.411 514.589 578.529 514.589 578.573L373.3 655.793L377.316 658.009H337.224L333.208 655.793L333.541 655.594L500.478 564.388L591.956 397.316L592 437.411ZM592 389.625C592 389.625 497.771 561.729 497.726 561.751L325.509 655.859L329.525 658.076H290.941L286.925 655.859L287.303 655.638L484.126 548.098L592 351.104V389.625ZM592 341.839C592 341.839 480.864 544.84 480.797 544.862L277.673 655.859L281.689 658.076H244.614L240.576 655.859L241.042 655.594L467.729 531.652L591.978 304.737L592 341.839ZM592 258.569V294.031C592 294.031 463.957 527.929 463.891 527.973L229.838 655.859L233.876 658.076H198.376L194.36 655.859L194.893 655.527L451.355 515.295L591.978 258.414L592 258.569ZM592 246.246C592 246.246 447.029 511.084 446.94 511.084L182.002 655.793L186.018 658.009H151.938L147.922 655.793L148.521 655.438L434.981 498.916L592 212.179V246.246ZM592 198.46C592 198.46 430.033 494.151 430.033 494.195L134.188 655.859L138.204 658.076H105.611L101.595 655.859L102.305 655.461L418.651 482.581L592 165.879V198.46ZM592 150.696C592 150.696 413.215 477.239 413.104 477.306L86.3749 655.793L90.3686 658.009H59.3065L55.2905 655.793L56.0672 655.35L402.188 466.224L591.956 119.578L592 150.696ZM592 73.4324V102.822C592 102.822 396.309 460.262 396.175 460.328L38.4948 655.793L42.5107 658.009H12.9352L8.91931 655.793L9.76227 655.305L385.903 449.845L591.978 73.2995L592 73.4324ZM592 55.1027C592 55.1027 379.38 443.395 379.247 443.461L0 650.717V635.358L369.484 433.51L592 27.0209V55.1027ZM592 0.911642V7.31702C592 7.31702 362.473 426.484 362.318 426.572L0 624.542V610.024L353.088 417.197L580.973 0.845153L592 0.911642ZM569.325 0.911642C508.376 112.131 345.522 409.617 345.389 409.683L0 598.41V584.713L336.714 400.751L555.635 0.845153L569.325 0.911642ZM543.166 0.911642C467.019 139.991 328.593 392.794 328.46 392.883L0.0886841 572.412V559.534L320.428 384.438L530.386 1.00025L543.166 0.911642ZM516.985 0.911642C433.96 152.492 311.664 375.883 311.531 375.883L0 546.103V534.046L303.81 368.037L504.959 0.845153L516.985 0.911642ZM490.826 0.911642C404.673 158.276 294.735 359.016 294.602 359.105L0 519.95V508.867L287.569 351.636L479.622 0.845153L490.826 0.911642ZM464.667 0.911642C377.56 159.961 277.806 342.238 277.695 342.238L0 493.951V483.556L271.172 335.301L454.262 0.845153L464.667 0.911642ZM438.509 0.911642C351.978 159.03 260.878 325.238 260.745 325.305L0 467.775V458.2L254.798 319.01L428.946 0.845153L438.509 0.911642ZM412.328 0.911642C327.24 156.215 243.904 308.283 243.904 308.349L0.0664673 441.577V432.823L238.424 302.542L403.652 0.845153L412.328 0.911642ZM386.147 0.911642C303.344 152.137 227.02 291.46 226.909 291.549L0 415.512V407.556L222.028 286.207L378.248 0.845153L386.147 0.911642ZM359.988 0.911642C280.003 146.951 210.091 274.571 209.98 274.638L0 389.381V382.266L205.654 269.895L352.91 0.845153L359.988 0.911642ZM333.829 0.911642C257.217 140.944 193.184 257.638 193.073 257.704L0.0443726 363.161V356.866L189.324 253.471L327.617 0.800781L333.829 0.911642ZM307.648 0.911642C234.652 134.14 176.233 240.682 176.122 240.682L0 336.919V331.555L172.905 237.114L302.235 0.845153L307.648 0.911642ZM281.467 0.911642C212.465 126.914 159.304 223.904 159.216 223.971L0 310.942V306.31L156.531 220.735L276.897 0.845153L281.467 0.911642ZM255.286 0.911642C190.544 119.135 142.398 207.037 142.287 207.037L0 284.767V280.954L140.112 204.4L251.537 0.867271L255.286 0.911642ZM229.216 0.911642L125.691 189.993L125.358 190.215L0 258.702V255.687L123.76 188.087L226.155 0.845153L229.216 0.911642Z" fill="url(#paint0_linear_1_1132)"/>
<defs>
<linearGradient id="paint0_linear_1_1132" x1="-14.8" y1="24.4808" x2="590.52" y2="659.401" gradientUnits="userSpaceOnUse">
<stop offset="0.480642" stop-color="#ECECEC"/>
<stop offset="1" stop-color="#D5D8DA"/>
</linearGradient>
</defs>
</svg>
