<?xml version="1.0" encoding="utf-8"?><svg xmlns="http://www.w3.org/2000/svg" xmlns:xlink="http://www.w3.org/1999/xlink"><symbol viewBox="0 0 20 20" id="add" xmlns="http://www.w3.org/2000/svg"><g clip-path="url(#aaa)"><path fill-rule="evenodd" clip-rule="evenodd" d="M8.78.076C1.97.903-2.022 8.336 1.053 14.47c3.71 7.398 14.25 7.386 17.925-.02C22.504 7.343 16.67-.88 8.781.077Zm2.48 1.602c5.623.857 8.838 7 6.308 12.053-2.515 5.023-9.048 6.285-13.179 2.546C-1.11 11.3 1.96 2.284 9.386 1.602c.342-.03 1.47.015 1.875.076ZM9.68 5.363c-.441.203-.45.246-.45 2.171v1.623H7.608c-1.376 0-1.645.009-1.767.06-.578.241-.654 1.031-.133 1.388l.137.095 1.691.01 1.692.011.01 1.692.011 1.69.095.138a.8.8 0 0 0 1.335 0l.094-.137.01-1.691.012-1.692 1.691-.01 1.691-.011.138-.095c.52-.357.445-1.147-.133-1.388-.123-.051-.391-.06-1.767-.06h-1.622l-.001-1.631c-.001-1.502-.007-1.644-.073-1.787a.78.78 0 0 0-1.04-.376Z"/></g><defs><clipPath id="aaa"><path d="M0 0h20v20H0z"/></clipPath></defs></symbol><symbol viewBox="0 0 48 48" id="archive" xmlns="http://www.w3.org/2000/svg"><path fill-rule="evenodd" clip-rule="evenodd" d="M9.15 7.281c-1.848.309-3.419 1.658-4.1 3.52l-.218.6-.022 13.015c-.024 14.4-.051 13.615.504 14.76.65 1.339 1.85 2.342 3.364 2.809.464.143 1.162.15 15.362.15h14.877l.653-.231c1.636-.578 2.785-1.714 3.378-3.338l.22-.6.022-7.8c.022-7.584.018-7.816-.142-8.448-.393-1.556-1.364-2.775-2.762-3.468l-.593-.294v-1.4c0-2.185-.317-3.065-1.55-4.299-1.549-1.548-1.564-1.55-9.094-1.55h-6.04L20.43 9.058c-1.418-.906-2.712-1.695-2.876-1.754-.348-.124-7.677-.145-8.405-.024Zm10.017 5.203 2.659 1.696 6.502.041c7.087.044 6.774.023 7.29.51.435.407.513.671.546 1.838l.03 1.08-10.04.026c-9.398.024-10.074.035-10.533.173-1.738.522-3.168 1.952-3.688 3.689-.136.455-.149 1.082-.173 8.772l-.026 8.282-1.136-.026c-1.31-.03-1.648-.177-2.047-.889l-.204-.364V12.054l.183-.342c.187-.35.563-.69.923-.833.12-.048 1.58-.083 3.628-.086l3.427-.005 2.66 1.696Z"/></symbol><symbol viewBox="0 0 24 24" id="attach" xmlns="http://www.w3.org/2000/svg"><path fill-rule="evenodd" clip-rule="evenodd" d="M15.21 3.021c-1.316.105-2.385.497-3.437 1.26-.373.27-8.546 8.419-8.861 8.835-1.16 1.528-1.219 3.696-.144 5.312 1.386 2.082 4.23 2.65 6.341 1.266.35-.229 7.75-7.55 8.075-7.989 1.83-2.465-1.207-5.622-3.77-3.919-.382.253-5.126 5.015-5.233 5.251a.922.922 0 0 0 .84 1.298c.42.004.312.097 2.986-2.567 2.14-2.132 2.506-2.48 2.666-2.54.716-.265 1.412.495 1.094 1.193-.104.229-7.413 7.536-7.745 7.744C5.65 19.65 2.861 17 4.21 14.54c.236-.43 8.473-8.65 8.979-8.96 3.697-2.265 8.136 1.324 6.684 5.406-.327.92-.338.933-4.861 5.469-4.284 4.296-4.191 4.194-4.191 4.59a.918.918 0 0 0 1.342.823c.23-.115 8.11-7.99 8.485-8.48 3.374-4.39.01-10.803-5.438-10.368Z"/></symbol><symbol viewBox="0 0 22 24" id="basket" xmlns="http://www.w3.org/2000/svg"><g clip-path="url(#ada)"><path d="M10.363 18.443a2.046 2.046 0 0 0-2.045 2.042 2.046 2.046 0 0 0 4.09 0 2.046 2.046 0 0 0-2.045-2.042Zm6.134 0a2.046 2.046 0 0 0-2.045 2.042 2.046 2.046 0 0 0 4.089 0 2.046 2.046 0 0 0-2.044-2.042Zm3.978-8.199L7.413 6.891a.614.614 0 0 0-.75.73L8.67 16.4h-.786L5.482 5.895a.613.613 0 0 0-.474-.464l-4.27-.882A.614.614 0 0 0 .489 5.75l3.885.802L6.797 17.15a.613.613 0 0 0 .598.477h12.07a.615.615 0 0 0 .607-.53l.858-6.175a.613.613 0 0 0-.455-.678Zm-8.14 3.91a.613.613 0 0 1-1.227 0v-2.696a.613.613 0 0 1 1.227 0v2.696Zm2.625 0a.613.613 0 0 1-1.227 0v-1.88a.613.613 0 0 1 1.227 0v1.88Zm2.625 0a.613.613 0 0 1-1.227 0v-1.226a.613.613 0 0 1 1.227 0v1.226Z"/></g><path fill-rule="evenodd" clip-rule="evenodd" d="M16.268 4.568a2.996 2.996 0 0 0-1.693-.523c-.627 0-1.21.193-1.693.523-.28-.843-.492-1.752-.492-2.383C12.39.98 13.37 0 14.575 0s2.185.98 2.185 2.185c0 .631-.212 1.54-.492 2.383Zm-4.722 2.274.024.006v-.011l-.024.005Zm4.972 1.217c-1.333-.33-2.766-.681-4.129-1.013a2.185 2.185 0 1 1 4.129 1.013Zm4.436 1.103c-.866-.217-2.155-.538-3.618-.9a2.995 2.995 0 0 0 .243-1.425c.87.18 1.762.45 2.308.765.596.344.969.928 1.067 1.56ZM9.869 6.439c-.36-.086-.706-.167-1.03-.243a2.19 2.19 0 0 1-.376-2.667 2.188 2.188 0 0 1 3.147-.7c.098.738.338 1.599.61 2.353a3.01 3.01 0 0 0-.449.774c-.628.113-1.305.278-1.902.483Zm10.124.075a3.43 3.43 0 0 1-.217.114c-.696-.295-1.587-.526-2.397-.672a3.01 3.01 0 0 0-.449-.774c.262-.727.494-1.553.599-2.273.095-.067.189-.128.278-.18a2.188 2.188 0 0 1 2.986.8 2.188 2.188 0 0 1-.8 2.985Z"/><defs><clipPath id="ada"><path transform="translate(0 3.064)" d="M0 0h20.936v20.936H0z"/></clipPath></defs></symbol><symbol viewBox="0 0 20 20" id="calendar" xmlns="http://www.w3.org/2000/svg"><g clip-path="url(#aea)"><path fill-rule="evenodd" clip-rule="evenodd" d="M5.05.133c-.346.16-.42.319-.437.92l-.014.494-.596.026C1.967 1.66.626 2.67.101 4.513l-.086.301-.012 5.77c-.009 4.169 0 5.857.033 6.081.248 1.738 1.608 3.066 3.374 3.296.584.076 13.233.03 13.551-.05 1.633-.407 2.795-1.672 3.005-3.27.03-.227.04-2.069.031-6.076l-.012-5.75-.085-.302c-.547-1.92-2.014-2.951-4.2-2.954h-.298l-.014-.5c-.04-1.448-1.557-1.393-1.557.056v.444H6.17v-.444c0-.86-.48-1.28-1.122-.982Zm-.443 3.825c0 .67.012.868.06.984.242.576 1 .65 1.365.132l.119-.169.012-.893.012-.894h7.656v.81c0 1.19.157 1.49.781 1.49.627 0 .782-.29.782-1.466v-.845l.576.022c1.578.061 2.42.894 2.464 2.436l.017.594H1.55l.015-.594c.043-1.586.936-2.424 2.601-2.442l.44-.005v.84Zm13.835 8.101c0 4.211-.002 4.35-.078 4.646a2.311 2.311 0 0 1-1.744 1.677c-.404.085-12.835.085-13.244 0a2.315 2.315 0 0 1-1.74-1.677c-.075-.296-.078-.434-.078-4.646V7.72h16.884v4.34ZM4.313 10.092a.767.767 0 0 0 0 1.414c.237.107 1.917.106 2.15-.002a.771.771 0 0 0 0-1.411c-.233-.108-1.913-.109-2.15-.001Zm4.612 0c-.265.12-.488.443-.488.707 0 .603.35.777 1.565.779 1.044 0 1.142-.023 1.383-.325.28-.35.132-.93-.291-1.146-.24-.123-1.906-.134-2.169-.015Zm4.612 0a.762.762 0 0 0-.433.904.76.76 0 0 0 .433.508c.217.1 1.889.11 2.122.014a.768.768 0 0 0 .028-1.426c-.237-.108-1.916-.107-2.15 0Zm-9.224 4.6a.768.768 0 0 0 .029 1.426c.178.074 1.786.088 2.043.018.666-.183.718-1.147.078-1.443-.233-.107-1.913-.108-2.15-.001Zm4.561.028c-.595.296-.542 1.161.086 1.4.267.102 1.982.071 2.17-.039.556-.327.525-1.127-.055-1.389-.282-.128-1.929-.107-2.2.028Zm4.663-.027c-.645.298-.59 1.257.083 1.443.252.07 1.862.056 2.039-.018a.768.768 0 0 0 .028-1.426c-.237-.107-1.916-.107-2.15.001Z"/></g><defs><clipPath id="aea"><rect width="20" height="20" rx="4"/></clipPath></defs></symbol><symbol viewBox="0 0 344.96 344.96" id="check" xmlns="http://www.w3.org/2000/svg"><g data-name="Слой 2"><path class="afcls-1" d="m321.85 86.24-40-23.11-23.1-40H212.5L172.48 0l-40 23.11H86.24l-23.11 40-40 23.1v46.21L0 172.48l23.11 40v46.21l40 23.11 23.11 40h46.21l40 23.1 40-23.11h46.21l23.11-40 40-23.11V212.5l23.11-40-23.11-40V86.24ZM156.91 243.07a16.79 16.79 0 0 1-23.34 0l-50.45-50.44a16.19 16.19 0 0 1 0-22.89l13.35-13.35a16.19 16.19 0 0 1 22.89 0l25.87 25.87 80.34-80.35a16.19 16.19 0 0 1 22.89 0l13.35 13.35a16.19 16.19 0 0 1 0 22.89Z" data-name="Capa 1"/></g></symbol><symbol viewBox="0 0 20 20" id="check2" xmlns="http://www.w3.org/2000/svg"><path fill-rule="evenodd" clip-rule="evenodd" d="M14.425 5.032c-.258.066-.205.015-3.303 3.118l-2.968 2.973-1.102-1.106C5.73 8.692 5.715 8.681 5.28 8.706c-.3.017-.435.097-.812.475-.412.412-.467.517-.467.885 0 .428-.135.266 1.999 2.4 2.055 2.056 1.899 1.922 2.206 1.899.254-.02.106.12 3.976-3.757 4.189-4.196 3.808-3.772 3.808-4.235 0-.361-.04-.436-.464-.865-.455-.46-.717-.573-1.102-.476Z"/></symbol><symbol viewBox="0 0 20 20" id="chevron-down" xmlns="http://www.w3.org/2000/svg"><path fill-rule="evenodd" clip-rule="evenodd" d="M15.965 6.82a1.169 1.169 0 0 1-.034-.102c-.002-.034-.59-.6-.663-.638a.75.75 0 0 0-.637-.004c-.039.02-1.095 1.059-2.347 2.31l-2.277 2.274-2.289-2.286C5.182 5.841 5.36 6 5.043 6.003c-.224.002-.326.063-.65.39-.385.387-.475.654-.323.955.077.151 5.53 5.585 5.667 5.646a.766.766 0 0 0 .54.009c.149-.07 5.593-5.513 5.667-5.667a.76.76 0 0 0 .02-.515Z"/></symbol><symbol viewBox="0 0 20 20" id="chevron-left" xmlns="http://www.w3.org/2000/svg"><path fill-rule="evenodd" clip-rule="evenodd" d="M12.226 15.965a1.04 1.04 0 0 1 .103-.034c.034-.002.6-.59.637-.663a.751.751 0 0 0 .005-.637c-.02-.039-1.059-1.095-2.31-2.347l-2.274-2.277 2.285-2.289c2.534-2.536 2.375-2.358 2.372-2.675-.003-.224-.064-.326-.39-.65-.387-.385-.654-.475-.955-.323-.151.077-5.585 5.53-5.646 5.667a.767.767 0 0 0-.009.54c.07.149 5.513 5.593 5.667 5.667a.76.76 0 0 0 .515.02Z"/></symbol><symbol viewBox="0 0 20 20" id="chevron-right" xmlns="http://www.w3.org/2000/svg"><path fill-rule="evenodd" clip-rule="evenodd" d="M7.297 15.488a1.207 1.207 0 0 0-.103-.034c-.034-.001-.6-.59-.637-.662a.75.75 0 0 1-.005-.637c.02-.04 1.059-1.095 2.31-2.348l2.274-2.277L8.85 7.242C6.317 4.705 6.476 4.884 6.48 4.566c.002-.224.063-.326.388-.649.388-.385.655-.476.956-.323.151.077 5.585 5.53 5.646 5.666a.766.766 0 0 1 .009.54c-.07.15-5.513 5.594-5.667 5.668a.76.76 0 0 1-.515.02Z"/></symbol><symbol viewBox="0 0 24 24" id="close" xmlns="http://www.w3.org/2000/svg"><g clip-path="url(#aka)"><path fill-rule="evenodd" clip-rule="evenodd" d="M.683.115C.102.39-.157 1.069.1 1.643c.074.165 1.212 1.33 5.167 5.284L10.339 12l-5.072 5.073C1.312 21.028.174 22.193.1 22.357c-.341.76.234 1.638 1.075 1.638.51 0 .285.205 5.754-5.26l5.074-5.071 5.075 5.07c3.956 3.954 5.12 5.092 5.285 5.166.76.341 1.638-.234 1.638-1.075 0-.51.205-.285-5.261-5.752L13.668 12l5.072-5.073C24.206 1.46 24 1.684 24 1.175c0-.84-.877-1.416-1.638-1.075-.165.074-1.33 1.212-5.285 5.165l-5.075 5.071-5.074-5.07C2.973 1.311 1.81.173 1.644.1a1.182 1.182 0 0 0-.961.015Z"/></g><defs><clipPath id="aka"><path d="M0 0h24v24H0z"/></clipPath></defs></symbol><symbol viewBox="0 0 20 20" id="copy" xmlns="http://www.w3.org/2000/svg"><path fill-rule="evenodd" clip-rule="evenodd" d="M2.317.08A1.783 1.783 0 0 0 1.29.864c-.312.483-.298.13-.285 6.956l.012 6.095.129.208a.926.926 0 0 0 1.575 0l.128-.208.021-5.74.022-5.74.13-.184c.07-.102.215-.233.319-.291l.19-.107 4.813-.021c5.264-.024 4.928-.006 5.16-.262.422-.464.309-1.167-.234-1.451L13.042 0 7.796.002C2.893.004 2.536.01 2.316.08Zm3.798 3.586c-.518.102-1.04.51-1.29 1.01l-.144.287-.011 6.77c-.013 7.535-.034 6.976.285 7.47.197.305.572.602.908.719.212.074.501.078 5.634.078h5.41l.234-.096c.34-.138.635-.379.841-.686.335-.498.311.084.299-7.484l-.011-6.771-.144-.286a1.927 1.927 0 0 0-1.324-1.013c-.28-.053-10.417-.05-10.687.002Zm9.812 1.909c.218.099.43.34.489.555.085.316.038 11.37-.05 11.53-.105.192-.326.392-.5.454-.222.08-8.559.08-8.782 0-.195-.07-.414-.282-.513-.5-.092-.202-.125-11.165-.035-11.492.059-.209.273-.45.487-.547.265-.12 8.64-.12 8.904 0Z"/></symbol><symbol viewBox="0 0 20 20" id="delete" xmlns="http://www.w3.org/2000/svg"><path fill-rule="evenodd" clip-rule="evenodd" d="M7.026.119a.826.826 0 0 0-.356.327l-.13.207-.012 1.037-.013 1.036H4.62c-2.064 0-2.072.001-2.332.247-.452.43-.358 1.201.181 1.486l.188.099H17.71l.188-.1c.539-.284.633-1.055.18-1.485-.259-.246-.267-.247-2.331-.247h-1.895L13.84 1.69 13.826.653l-.128-.21a.779.779 0 0 0-.36-.326L13.109 0H7.253l-.228.119Zm4.947 2.16v.447H8.394v-.894h3.579v.447ZM3.42 5.543c-.215.106-.42.34-.482.548-.029.1-.039 1.964-.03 5.58l.014 5.432.096.312c.312 1.01.982 1.8 1.9 2.243.757.366.388.342 5.266.342h4.323l.332-.096a3.613 3.613 0 0 0 2.27-1.906c.365-.77.337-.24.337-6.436V6.064l-.117-.178a.925.925 0 0 0-1.61.083c-.08.157-.083.298-.083 5.331 0 6.07.022 5.808-.53 6.36-.543.543-.473.536-5.093.52l-3.855-.012-.25-.094a1.803 1.803 0 0 1-1.064-1.07c-.092-.241-.092-.25-.113-5.588-.02-4.877-.028-5.357-.092-5.474-.24-.434-.787-.613-1.219-.4Zm4.502 1.84a1.107 1.107 0 0 0-.316.28l-.127.182-.012 3.482-.011 3.48.1.19c.353.67 1.371.61 1.667-.097.1-.24.1-6.813 0-7.053a.946.946 0 0 0-1.301-.464Zm3.689-.03a1.052 1.052 0 0 0-.452.464c-.112.24-.125 6.818-.015 7.083.296.707 1.314.767 1.667.098l.099-.187V7.937l-.1-.188c-.208-.396-.826-.6-1.2-.396Z"/></symbol><symbol viewBox="0 0 48 48" id="done" xmlns="http://www.w3.org/2000/svg"><path fill-rule="evenodd" clip-rule="evenodd" d="M21.664 2.105C4.084 4.075-4.219 24.943 7.25 38.34c13.239 15.464 38.694 6.126 38.734-14.21C46.01 10.969 34.62.654 21.664 2.105Zm4.9 4.174C38.5 7.917 45.43 20.983 40.133 31.863c-6.548 13.45-25.822 13.414-32.301-.062C1.63 18.903 12.328 4.326 26.562 6.279Zm6.58 10.913c-.206.104-2.78 2.399-5.719 5.1l-5.344 4.91-2.53-2.512c-2.649-2.627-2.766-2.717-3.563-2.717-1.444 0-2.435 1.529-1.87 2.885.18.437 6.271 6.576 6.885 6.94.549.327 1.36.345 1.922.042.6-.323 12.618-11.393 12.867-11.852.907-1.67-.963-3.644-2.648-2.796Z"/></symbol><symbol viewBox="0 0 24 24" id="edit" xmlns="http://www.w3.org/2000/svg"><g clip-path="url(#aoa)"><path fill-rule="evenodd" clip-rule="evenodd" d="M20.273.07c-.407.087-1.01.391-1.308.659-.34.306-10.926 11.898-11.055 12.105-.21.339-1.418 4.083-1.418 4.393.001.917.784 1.602 1.635 1.43.315-.063 3.978-1.656 4.201-1.827.122-.093 9.524-10.361 10.843-11.842C25.064 2.865 23.064-.53 20.273.07Zm1.009 2.077c.508.23.735.9.451 1.332-.046.07-2.135 2.375-4.642 5.12l-4.558 4.99-.7-.642-.701-.64.18-.19c.1-.105 2.176-2.376 4.614-5.047 3.487-3.821 4.47-4.872 4.612-4.93.24-.1.514-.098.744.007Zm-17.027.102C2.247 2.447.561 3.961.132 5.953c-.08.372-.085.797-.085 7.216v6.82l.125.451c.517 1.873 1.951 3.185 3.812 3.488.63.102 13.34.102 13.97 0 1.854-.302 3.3-1.62 3.807-3.47l.128-.469.015-4.758c.016-5.255.027-5.037-.284-5.375-.488-.53-1.31-.41-1.667.242-.07.128-.08.587-.101 4.922l-.024 4.782-.105.308a2.749 2.749 0 0 1-1.69 1.693l-.314.108h-13.5l-.314-.108a2.765 2.765 0 0 1-1.69-1.693l-.106-.308-.012-6.55c-.011-5.541-.003-6.598.054-6.871.193-.924.872-1.671 1.81-1.99l.305-.104 4.921-.024c4.472-.022 4.935-.031 5.063-.102.74-.41.714-1.426-.047-1.836l-.187-.101-4.688-.006c-2.578-.004-4.86.01-5.073.031Zm6.616 12.613.282.263-.142.073c-.336.174-1.999.881-2.02.86-.024-.024.614-1.99.698-2.153.045-.087.183.024 1.182.957Z"/></g><defs><clipPath id="aoa"><path d="M0 0h24v24H0z"/></clipPath></defs></symbol><symbol viewBox="0 0 20 20" id="eye" xmlns="http://www.w3.org/2000/svg"><g clip-path="url(#apa)"><path d="M10 16.839a8.143 8.143 0 0 1-5.79-2.4L.227 10.466a.769.769 0 0 1 0-1.092L4.21 5.398a8.189 8.189 0 0 1 11.58 0l3.983 3.975a.771.771 0 0 1 0 1.092L15.79 14.44A8.143 8.143 0 0 1 10 16.839Zm-8.143-6.92 3.437 3.437a6.666 6.666 0 0 0 9.412 0l3.436-3.437-3.436-3.437a6.666 6.666 0 0 0-9.412 0L1.857 9.919Z"/><path d="M10 12.994a3.076 3.076 0 1 1 0-6.152 3.076 3.076 0 0 1 0 6.152Zm0-4.613a1.538 1.538 0 1 0 0 3.075 1.538 1.538 0 0 0 0-3.075Z"/></g><defs><clipPath id="apa"><path d="M0 0h20v20H0z"/></clipPath></defs></symbol><symbol viewBox="0 0 24 24" id="fb" xmlns="http://www.w3.org/2000/svg"><path d="M13.397 20.997v-8.196h2.765l.411-3.209h-3.176V7.548c0-.926.258-1.56 1.587-1.56h1.684v-2.86A22.108 22.108 0 0 0 14.201 3c-2.444 0-4.122 1.492-4.122 4.231v2.355H7.332v3.21h2.753v8.201h3.312Z"/></symbol><symbol viewBox="0 0 24 24" id="file" xmlns="http://www.w3.org/2000/svg"><path fill-rule="evenodd" clip-rule="evenodd" d="m7.309 2.024-1.204.124c-.567.058-1.194.135-1.392.171a4.55 4.55 0 0 0-3.635 3.586c-.112.586-.1 11.34.014 11.882.352 1.678 1.684 3.071 3.328 3.484.53.133 1.927.289 3.856.43 3.34.245 9.57.008 11.348-.432 1.573-.39 2.832-1.637 3.276-3.248l.1-.362V6.524l-.096-.343c-.46-1.65-1.639-2.823-3.318-3.3-.323-.092-.367-.094-4.754-.117l-4.428-.023-.215-.129c-.76-.456-1.907-.69-2.88-.588Zm1.493 1.98c.574.213.724.335 2.268 1.842 1.747 1.704 2.018 1.9 3.074 2.214l.387.115 2.171.03c2.4.032 2.415.034 2.967.32.662.343 1.106.856 1.363 1.574l.12.335.012 3.31c.014 4.009.015 4.003-.563 4.773-.673.896-1.294 1.07-4.673 1.309-4.424.314-10.288.038-11.521-.54-.659-.31-1.217-.97-1.447-1.712-.123-.396-.123-11.122 0-11.518.276-.891.998-1.611 1.868-1.864.2-.058.8-.135 2.158-.28.682-.071 1.485-.03 1.816.092Zm10.17.653a2.715 2.715 0 0 1 2.134 2.115c.108.52.108.52-.174.342a5.257 5.257 0 0 0-1.371-.598l-.43-.114-2.128-.025-2.128-.025-.344-.12c-.527-.182-.803-.375-1.482-1.033l-.624-.606 3.107-.002c2.662 0 3.156.009 3.44.066ZM4.45 15.467c-.834.253-.953 1.314-.194 1.718l.172.092h15.176l.172-.092a.922.922 0 0 0 0-1.644l-.172-.092-7.523-.007c-4.138-.004-7.572.007-7.631.025Z"/></symbol><symbol viewBox="0 0 24 24" id="file-list" xmlns="http://www.w3.org/2000/svg"><path fill-rule="evenodd" clip-rule="evenodd" d="M5.832 1.442c-1.113.146-2.096 1.028-2.41 2.164-.126.455-.124 16.306.002 16.762a3.072 3.072 0 0 0 2.103 2.103c.46.128 12.464.128 12.925 0a3.072 3.072 0 0 0 2.103-2.103c.132-.475.128-12.87-.004-13.119-.12-.226-5.44-5.553-5.702-5.71l-.211-.126-4.242-.006c-2.333-.004-4.387.012-4.564.035Zm7.105 4.436c.015 2.828.005 2.75.376 3.026.292.217.339.22 2.926.22h2.454v10.767l-.11.206c-.06.114-.198.27-.308.348l-.2.14H5.904l-.2-.14a1.183 1.183 0 0 1-.309-.348l-.109-.206V4.09l.099-.203a.974.974 0 0 1 .543-.482c.072-.022 1.676-.041 3.564-.043l3.432-.004.013 2.52Zm3.412-.152 1.429 1.43h-2.882v-1.43c0-.787.005-1.43.012-1.43.006 0 .655.643 1.44 1.43ZM7.744 8.229c-.727.33-.738 1.373-.017 1.74.273.14 2.484.141 2.757.002.745-.38.735-1.402-.018-1.744-.284-.13-2.437-.128-2.722.002Zm0 3.843c-.734.334-.734 1.411 0 1.745.296.134 8.195.134 8.491 0 .734-.334.734-1.411 0-1.745-.296-.134-8.195-.134-8.491 0Zm.003 3.833c-.743.39-.744 1.419-.003 1.755.296.135 8.195.135 8.491 0 .746-.338.738-1.379-.013-1.757-.226-.114-8.258-.112-8.475.002Z"/></symbol><symbol viewBox="0 0 20 20" id="fist" xmlns="http://www.w3.org/2000/svg"><g clip-path="url(#ata)"><path fill-rule="evenodd" clip-rule="evenodd" d="M7.212.038C7.042.11 6.981.19 6.19 1.374l-.776 1.162 1.172.586a72.62 72.62 0 0 0 1.185.586c.008 0 .333-.48.723-1.065.982-1.474.986-1.42-.15-2.156C7.598.004 7.44-.058 7.212.038Zm3.124 2.095c-.12.062-1.472 1.971-1.482 2.092-.002.03 2.342 1.216 2.36 1.194.006-.007.279-.415.606-.909l.595-.896-.016-.197c-.025-.299-.096-.37-.864-.865-.787-.509-.929-.558-1.199-.419Zm-5.51 1.572a1.267 1.267 0 0 0-.186.078c-.104.055-2.891 4.22-2.941 4.394-.074.257-.047.297 2.235 3.375 1.276 1.72 2.24 3.057 2.267 3.14.041.132-.003.333-.528 2.434-.664 2.655-.663 2.642-.168 2.83.224.084 9.163.055 9.323-.031.305-.164.291-.074.313-2.05.023-2.07-.025-1.873.549-2.268 1.26-.868 1.638-1.746 1.638-3.795v-.844l-.165.135c-.447.362-1.036.499-1.555.36-.117-.03-1.459-.61-2.981-1.289-2.406-1.07-2.794-1.232-2.96-1.232h-.19l1.25 2.5c1.354 2.708 1.348 2.693 1.182 2.975a.59.59 0 0 1-.824.178c-.129-.087-.28-.371-1.53-2.875L8.17 8.942H6.856c-1.29 0-1.315-.001-1.48-.089a.574.574 0 0 1-.03-1.005c.122-.074.201-.077 2.1-.078 2.365-.002 2.173.037 2.541-.511.334-.496.372-.759.147-1-.102-.11-4.907-2.529-5.09-2.563a.544.544 0 0 0-.218.01Zm8.674.517c-.161.108-2.278 3.242-2.35 3.48-.116.38.058.56.9.93 1.008.442.854.546 2.222-1.498 1.37-2.05 1.355-1.926.331-2.595-.667-.437-.846-.488-1.103-.317Zm3.093 1.832c-.205.044-.279.137-1.23 1.56-1.298 1.942-1.298 1.924-.07 2.462.998.438.876.513 2.063-1.26 1.19-1.777 1.183-1.728.289-2.311-.724-.472-.799-.504-1.052-.45Z"/></g><defs><clipPath id="ata"><path d="M0 0h20v20H0z"/></clipPath></defs></symbol><symbol viewBox="0 0 24 24" id="gantt" xmlns="http://www.w3.org/2000/svg"><path fill-rule="evenodd" clip-rule="evenodd" d="M2.584 2.073c-.209.094-.482.393-.539.589-.09.308-.033 15.831.06 16.237.364 1.6 1.546 2.745 3.136 3.036.29.053 1.749.065 8.24.065h7.887l.18-.125a1.011 1.011 0 0 0 0-1.684l-.173-.117-7.774-.026c-6.124-.02-7.833-.038-8.053-.086a1.897 1.897 0 0 1-1.487-1.488c-.048-.22-.066-1.93-.086-8.06l-.026-7.78-.128-.183c-.27-.388-.836-.56-1.237-.378Zm4.066 3.99c-.786.251-.863 1.433-.12 1.816l.234.12 3.1.015c3.555.016 3.49.022 3.828-.317.496-.496.378-1.263-.241-1.572l-.247-.123-3.195.005c-2.202.003-3.246.02-3.36.057Zm2.128 3.977c-.964.234-1.022 1.663-.078 1.926.25.069 9.359.069 9.608 0 .815-.227.925-1.406.17-1.83l-.208-.117-4.672-.007c-2.57-.005-4.738.008-4.82.028Zm6.815 4.084c-.766.348-.766 1.45 0 1.798.289.131 4.548.131 4.837 0 .766-.349.766-1.45 0-1.798-.289-.131-4.548-.131-4.837 0Z"/></symbol><symbol viewBox="0 0 24 24" id="info" xmlns="http://www.w3.org/2000/svg"><path fill-rule="evenodd" clip-rule="evenodd" d="M6.954 2.061a6.06 6.06 0 0 0-4.655 4.033c-.32.96-.307.571-.294 8.313l.013 6.988.117.174c.065.096.2.232.302.302L2.62 22h14.34l.446-.124c2.374-.66 3.944-2.276 4.493-4.627.136-.581.136-9.907 0-10.489-.544-2.33-2.14-3.986-4.45-4.616l-.49-.133-4.815-.009c-4.033-.007-4.877.002-5.19.06ZM16.987 4.09c1.475.416 2.516 1.465 2.919 2.938l.107.392v4.562c0 4.544 0 4.565-.103 4.967-.396 1.552-1.604 2.71-3.14 3.012-.268.053-1.464.064-6.553.064H3.99V7.42l.107-.392c.446-1.634 1.747-2.8 3.367-3.017.73-.098 9.142-.029 9.522.079Zm-5.972 5.917v4.021h1.973V5.985h-1.973v4.022Zm0 7.008v1.012h1.973v-2.024h-1.973v1.011Z"/></symbol><symbol viewBox="0 0 24 24" id="info2" xmlns="http://www.w3.org/2000/svg"><path fill-rule="evenodd" clip-rule="evenodd" d="M10.817 2.077C1.585 3.25-1.26 15.174 6.463 20.327c7.015 4.679 16.451-1.09 15.466-9.456-.647-5.488-5.693-9.482-11.112-8.794Zm1.973 1.388c6.421.603 9.935 7.92 6.364 13.256-3.693 5.519-11.966 4.989-14.876-.953C1.345 9.78 6.144 2.842 12.79 3.465ZM11.677 7.28c-.953.313-1.045 1.346-.157 1.754.864.397 1.835-.42 1.447-1.219-.2-.414-.845-.681-1.29-.535Zm.02 3.072c-.288.065-.457.148-.584.288l-.14.154v5.29l.09.132c.383.569 1.77.46 1.94-.152.073-.26.053-5.08-.021-5.266-.132-.33-.788-.557-1.286-.446Z"/></symbol><symbol viewBox="0 0 24 24" id="instagram" xmlns="http://www.w3.org/2000/svg"><path d="M11.999 7.377a4.624 4.624 0 1 0 0 9.248 4.624 4.624 0 0 0 0-9.248Zm0 7.627a3.004 3.004 0 1 1 0-6.008 3.004 3.004 0 0 1 0 6.008Zm4.807-6.719a1.078 1.078 0 1 0 0-2.156 1.078 1.078 0 0 0 0 2.156Z"/><path d="M20.533 6.11A4.605 4.605 0 0 0 17.9 3.48a6.607 6.607 0 0 0-2.186-.42c-.963-.042-1.268-.054-3.71-.054s-2.755 0-3.71.054a6.554 6.554 0 0 0-2.184.42 4.6 4.6 0 0 0-2.633 2.63 6.585 6.585 0 0 0-.419 2.186c-.043.962-.056 1.267-.056 3.71 0 2.442 0 2.753.056 3.71.015.748.156 1.486.419 2.187a4.61 4.61 0 0 0 2.634 2.632 6.583 6.583 0 0 0 2.185.45c.963.042 1.268.055 3.71.055s2.755 0 3.71-.055a6.616 6.616 0 0 0 2.186-.42 4.613 4.613 0 0 0 2.633-2.632c.263-.7.404-1.438.419-2.186.043-.962.056-1.267.056-3.71s0-2.753-.056-3.71a6.583 6.583 0 0 0-.421-2.217Zm-1.218 9.533a5.046 5.046 0 0 1-.311 1.688 2.987 2.987 0 0 1-1.712 1.71c-.535.2-1.1.305-1.67.312-.95.044-1.218.055-3.654.055-2.438 0-2.687 0-3.655-.055a4.961 4.961 0 0 1-1.67-.311 2.984 2.984 0 0 1-1.718-1.711 5.08 5.08 0 0 1-.311-1.67c-.043-.95-.053-1.217-.053-3.653 0-2.437 0-2.686.053-3.655a5.038 5.038 0 0 1 .311-1.687c.305-.79.93-1.41 1.719-1.712a5.01 5.01 0 0 1 1.669-.311c.95-.043 1.218-.055 3.655-.055s2.687 0 3.654.055a4.96 4.96 0 0 1 1.67.31 2.99 2.99 0 0 1 1.712 1.713 5.06 5.06 0 0 1 .311 1.669c.043.95.054 1.218.054 3.655 0 2.436 0 2.698-.043 3.654h-.011v-.001Z"/></symbol><symbol viewBox="0 0 24 24" id="list" xmlns="http://www.w3.org/2000/svg"><path fill-rule="evenodd" clip-rule="evenodd" d="M2.641 4.1c-1.124.527-.667 2.188.575 2.085 1.011-.084 1.346-1.402.506-1.991a1.175 1.175 0 0 0-1.08-.093Zm4.512-.035c-.822.328-.946 1.435-.219 1.946l.226.16 6.968.013c7.78.016 7.232.042 7.587-.352a1.09 1.09 0 0 0-.357-1.728c-.242-.11-13.934-.148-14.205-.04ZM2.64 10.774c-1.124.526-.667 2.187.575 2.084 1.011-.084 1.346-1.402.506-1.991a1.175 1.175 0 0 0-1.08-.093Zm4.512-.036c-.822.328-.946 1.435-.219 1.946l.226.159 6.968.014c7.78.016 7.232.042 7.587-.352a1.09 1.09 0 0 0-.357-1.728c-.242-.11-13.934-.148-14.205-.04ZM2.64 17.447c-1.124.526-.667 2.187.575 2.084 1.011-.084 1.346-1.402.506-1.991a1.175 1.175 0 0 0-1.08-.093Zm4.512-.037c-.822.328-.946 1.436-.219 1.947l.226.159 6.968.014c7.78.016 7.232.042 7.587-.352a1.09 1.09 0 0 0-.357-1.728c-.242-.11-13.934-.148-14.205-.04Z"/></symbol><symbol viewBox="0 0 20 20" id="members" xmlns="http://www.w3.org/2000/svg"><path fill-rule="evenodd" clip-rule="evenodd" d="m12.605 1.83-.579.868.122.08c1.6 1.049 2.302 3.032 1.679 4.74-.238.65-.451.945-1.327 1.834-.48.487-.795.843-.767.867.025.023.301.114.613.203 1.529.434 2.103.662 2.782 1.104 1.492.973 2.52 2.742 2.718 4.676l.034.333H20l-.03-.466c-.173-2.626-1.825-5.298-4.051-6.554a53.48 53.48 0 0 1-.462-.262c-.054-.032-.032-.112.113-.398 1.313-2.608.479-5.829-1.985-7.662-.405-.301-.317-.358-.98.637Zm-5.459.042c-3.398.643-4.643 4.802-2.15 7.184 2.318 2.215 6.12 1.135 6.988-1.984.153-.548.125-1.729-.053-2.267-.69-2.084-2.713-3.324-4.785-2.933Zm1.115 2.095c1.493.279 2.204 2.039 1.321 3.271-.9 1.256-2.867 1.094-3.55-.29-.755-1.537.557-3.293 2.229-2.98Zm-2.618 7.326c-3.325.393-5.606 3.023-5.636 6.498L0 18.63h2.12l.03-.936c.072-2.23 1.275-3.76 3.32-4.221.566-.128 4.536-.091 5.028.046 2 .56 3.09 2.037 3.165 4.286l.028.85h2.118l-.028-.974c-.094-3.24-1.984-5.591-5.062-6.3-.354-.08-4.518-.152-5.076-.087Z"/></symbol><symbol viewBox="0 0 24 24" id="objects" xmlns="http://www.w3.org/2000/svg"><path fill-rule="evenodd" clip-rule="evenodd" d="M2.898 1.073a2.623 2.623 0 0 0-1.825 1.841c-.097.382-.097 5.935 0 6.317.226.884.96 1.619 1.844 1.845.382.097 5.936.097 6.317 0A2.611 2.611 0 0 0 11.08 9.23c.097-.382.097-5.935 0-6.317A2.611 2.611 0 0 0 9.234 1.07c-.37-.095-5.976-.093-6.336.003Zm11.906-.006c-.904.219-1.71 1.047-1.895 1.948-.031.15-.047 1.183-.047 3.058 0 1.875.016 2.907.047 3.058.19.923 1.04 1.773 1.963 1.963.314.065 5.802.065 6.116 0 .923-.19 1.774-1.04 1.963-1.963.065-.314.065-5.802 0-6.116-.19-.924-1.04-1.774-1.963-1.964-.345-.07-5.884-.057-6.184.016Zm-5.868 1.75c.478.262.469.195.469 3.256 0 3.06.01 2.994-.469 3.255-.204.112-5.517.112-5.72 0-.172-.094-.394-.347-.436-.497-.075-.27-.038-5.476.04-5.619.092-.167.35-.396.476-.423l.181-.04c.291-.064 5.332-.002 5.46.068Zm11.85.02c.492.263.473.13.473 3.236 0 3.73.4 3.328-3.329 3.328-3.73 0-3.329.401-3.329-3.328 0-3.73-.396-3.346 3.437-3.336 2.546.007 2.579.008 2.748.1ZM2.898 12.926c-.87.23-1.602.968-1.825 1.841-.097.382-.097 5.936 0 6.317a2.61 2.61 0 0 0 1.844 1.845c.382.097 5.936.097 6.317 0a2.611 2.611 0 0 0 1.845-1.845c.097-.381.097-5.935 0-6.317a2.611 2.611 0 0 0-1.845-1.844c-.37-.095-5.976-.092-6.336.003Zm11.906-.006c-.904.219-1.71 1.047-1.895 1.948-.031.15-.047 1.183-.047 3.058 0 1.875.016 2.907.047 3.058.19.923 1.04 1.773 1.963 1.963.314.065 5.802.065 6.116 0 .923-.19 1.774-1.04 1.963-1.963.065-.314.065-5.802 0-6.116-.19-.923-1.04-1.774-1.963-1.963-.345-.071-5.884-.058-6.184.015Zm-5.868 1.75c.478.262.469.195.469 3.256 0 3.06.01 2.994-.469 3.256-.204.111-5.517.111-5.72 0-.172-.094-.394-.347-.436-.497-.075-.27-.038-5.476.04-5.62.092-.167.35-.396.476-.422l.181-.04c.291-.065 5.332-.002 5.46.067Zm11.85.02c.492.263.473.13.473 3.236 0 3.73.4 3.329-3.329 3.329-3.73 0-3.329.4-3.329-3.329 0-3.73-.396-3.345 3.437-3.335 2.546.006 2.579.007 2.748.098Z"/></symbol><symbol viewBox="0 0 24 24" id="pen" xmlns="http://www.w3.org/2000/svg"><path fill-rule="evenodd" clip-rule="evenodd" d="M15.766 2.116c-.544.191-.66.302-7.303 6.958-5.528 5.539-6.346 6.378-6.4 6.565-.087.312-.083 4.855.005 5.15.082.276.42.614.698.697.312.093 18.182.093 18.494 0 .9-.269 1.007-1.584.164-2.018l-.259-.133-5.447-.014-5.448-.014 5.427-5.434c3.397-3.402 5.476-5.522 5.559-5.669a2.165 2.165 0 0 0 .063-2.07c-.306-.624-3.28-3.597-3.902-3.901a2.11 2.11 0 0 0-1.65-.117Zm3.493 5.042c-.025.045-.663.698-1.417 1.45l-1.372 1.37-1.447-1.448-1.447-1.447 1.435-1.432 1.435-1.431 1.43 1.429c1.116 1.115 1.419 1.446 1.383 1.51Zm-5.786 2.95 1.433 1.433-3.884 3.884-3.883 3.884H4.245v-2.893l3.87-3.871c2.13-2.13 3.884-3.871 3.898-3.871.015 0 .672.645 1.46 1.433Z"/></symbol><symbol viewBox="0 0 20 20" id="plus" xmlns="http://www.w3.org/2000/svg"><path fill-rule="evenodd" clip-rule="evenodd" d="M9.657 4.066a.896.896 0 0 0-.41.41c-.057.123-.06.274-.061 2.421v2.29l-2.29.001c-2.148 0-2.299.004-2.422.06-.632.288-.632 1.22 0 1.508.123.056.274.06 2.421.06l2.29.001v2.29c.002 2.147.005 2.298.061 2.42.287.633 1.22.633 1.508 0 .056-.122.06-.273.06-2.42v-2.29h2.29c2.148-.001 2.299-.005 2.422-.061.632-.287.632-1.22 0-1.508-.123-.056-.274-.06-2.421-.06h-2.29v-2.29c-.002-2.556.01-2.422-.23-2.663a.878.878 0 0 0-.928-.17Z"/></symbol><symbol viewBox="0 0 24 24" id="settings" xmlns="http://www.w3.org/2000/svg"><path fill-rule="evenodd" clip-rule="evenodd" d="M10.034 1.077c-1.194.318-2.073 1.451-2.078 2.679-.002.62-.552.89-1.205.587-1.186-.549-2.353-.366-3.228.507-.349.348-1.741 2.658-1.913 3.173-.421 1.266.03 2.55 1.16 3.3.58.386.578.971-.006 1.36-1.123.745-1.576 2.03-1.157 3.284.175.525 1.563 2.832 1.916 3.184.875.872 2.075 1.058 3.242.504.634-.3 1.189-.025 1.191.591.004 1.157.842 2.297 1.943 2.643.508.16 3.667.16 4.176 0 1.1-.346 1.938-1.486 1.942-2.643.002-.616.558-.892 1.191-.591 1.168.554 2.367.368 3.242-.504.355-.354 1.706-2.592 1.903-3.151.442-1.257-.01-2.565-1.144-3.318-.615-.408-.589-.962.065-1.409 1.082-.74 1.512-2.04 1.08-3.27-.197-.56-1.549-2.798-1.904-3.153-.874-.872-2.042-1.056-3.228-.507-.652.302-1.203.034-1.205-.587-.004-1.144-.825-2.274-1.918-2.641-.45-.152-3.53-.18-4.065-.038Zm3.541 2.041c.267.157.339.297.387.756.223 2.106 2.227 3.271 4.046 2.353.598-.302.892-.185 1.308.518 1.384 2.346 1.407 2.442.71 2.9-1.713 1.123-1.732 3.521-.038 4.683.683.467.67.603-.177 2.08-.926 1.611-1.084 1.73-1.819 1.359-1.807-.912-3.811.262-4.03 2.36-.087.827-.142.85-1.975.85-1.834 0-1.89-.023-1.975-.85-.22-2.098-2.224-3.272-4.031-2.36-.735.37-.893.252-1.819-1.36-.844-1.47-.858-1.625-.188-2.068 1.701-1.126 1.693-3.519-.018-4.69-.66-.452-.644-.579.263-2.145.893-1.541 1.027-1.64 1.746-1.277 1.816.917 3.824-.248 4.045-2.347.09-.839.18-.876 2.07-.864 1.243.008 1.347.015 1.495.102Zm-2.463 3.934c-3.553.676-5.282 4.685-3.32 7.698 1.954 3.003 6.435 3.003 8.39 0 1.509-2.319.858-5.444-1.446-6.944-1.04-.677-2.47-.974-3.624-.754Zm1.601 2.07c1.296.309 2.232 1.517 2.232 2.879 0 2.645-3.167 3.955-5.048 2.087-2.126-2.113-.113-5.664 2.816-4.966Z"/></symbol><symbol viewBox="0 0 24 24" id="submit" xmlns="http://www.w3.org/2000/svg"><path fill-rule="evenodd" clip-rule="evenodd" d="M2.751 2.07C2.321 2.209 2 2.683 2 3.18c0 .203 1.712 7.104 1.808 7.29.1.192.139.199 4.083.636 4.18.465 3.95.422 4.067.754.051.145.05.187-.007.323-.124.295.045.265-4.066.722-3.938.437-3.977.443-4.077.635C3.712 13.727 2 20.628 2 20.83c0 .7.579 1.241 1.244 1.162.327-.038 18.067-8.699 18.317-8.942a1.462 1.462 0 0 0 0-2.089c-.151-.147-1.638-.886-9.15-4.55C2.542 1.6 3.242 1.915 2.75 2.072Z"/></symbol><symbol viewBox="0 0 24 24" id="tasks" xmlns="http://www.w3.org/2000/svg"><path fill-rule="evenodd" clip-rule="evenodd" d="M5.421 2.035c-1.583.234-2.897 1.42-3.315 2.992L2 5.425v6.532c0 5.282.012 6.59.063 6.836a4.098 4.098 0 0 0 3.145 3.144c.247.051 1.555.063 6.839.063h6.534l.398-.106a4.103 4.103 0 0 0 2.916-2.918l.105-.394V5.425l-.105-.394a4.125 4.125 0 0 0-2.893-2.918l-.374-.105L12.164 2c-3.555-.004-6.59.011-6.743.034Zm13.381 2.181c.438.207.75.513.963.945l.174.353v12.974l-.15.315a1.97 1.97 0 0 1-.944.962l-.353.175H5.512l-.314-.15a1.97 1.97 0 0 1-.963-.944l-.174-.353V5.518l.148-.312c.251-.53.648-.884 1.21-1.079.219-.076.658-.08 6.651-.07l6.417.01.315.15Zm-3.804 4.79c-.29.054-.373.126-2.072 1.819l-1.674 1.668-.809-.804c-.552-.549-.875-.834-1.02-.9-.781-.354-1.6.335-1.402 1.18.059.252 2.269 2.58 2.707 2.853.245.152.72.165 1.002.028.232-.112 4.237-4.14 4.369-4.393.378-.726-.287-1.601-1.101-1.451Z"/></symbol><symbol viewBox="0 0 15 13" id="telegram" xmlns="http://www.w3.org/2000/svg"><path d="M13.678.073.303 5.463c-.435.147-.386.784.048.932l3.38 1.078 1.352 4.312a.463.463 0 0 0 .773.196l1.98-1.862 3.765 2.793c.29.196.676.05.773-.294L14.981 1.25c.145-.833-.58-1.47-1.303-1.176ZM5.856 8.306l-.435 2.548-.966-3.528 9.416-6.273-8.015 7.253Z"/></symbol><symbol viewBox="0 0 24 24" id="tile" xmlns="http://www.w3.org/2000/svg"><path fill-rule="evenodd" clip-rule="evenodd" d="M2.885 2.463a.97.97 0 0 0-.442.464c-.07.183-.07 7.568 0 7.751.06.162.258.376.428.464.106.056.748.067 3.933.067h3.807l.192-.113a.942.942 0 0 0 .297-.3l.105-.186V6.805c0-3.183-.01-3.825-.066-3.93a1.052 1.052 0 0 0-.464-.429c-.213-.08-7.608-.065-7.79.017Zm10.406.003c-.527.247-.492-.064-.492 4.332v3.816l.113.193a.943.943 0 0 0 .299.297l.187.105h3.787c4.267 0 4.03.02 4.286-.36l.117-.172.014-3.754c.016-4.422.035-4.243-.492-4.464-.23-.095-7.614-.09-7.819.007Zm-3.69 4.348-.013 2.777-2.777.013-2.778.012v-5.58h5.58L9.6 6.815Zm10.37.012v2.79l-2.777-.012-2.778-.013-.012-2.777-.012-2.777h5.579v2.79ZM2.838 12.89a.966.966 0 0 0-.395.443c-.07.183-.07 7.567 0 7.751.068.18.27.388.452.466.194.083 7.563.097 7.78.015.162-.061.375-.258.464-.428.056-.106.066-.748.066-3.931V13.4l-.105-.187a.942.942 0 0 0-.297-.299l-.192-.113H6.795c-3.641 0-3.823.005-3.957.088Zm10.365.023c-.1.06-.232.193-.293.293l-.11.182V17.2c0 4.146-.015 3.926.264 4.19.242.229.186.226 4.146.226 4.127 0 3.928.014 4.2-.297.213-.241.207-.108.192-4.23l-.014-3.753-.116-.17c-.266-.387.026-.363-4.273-.362h-3.814l-.182.11ZM9.6 17.197l.012 2.777H4.033v-5.579l2.778.013 2.777.012.012 2.777Zm10.371-.012v2.79h-5.578v-2.759c0-1.516.014-2.771.031-2.789.017-.017 1.272-.03 2.79-.03h2.757v2.788Z"/></symbol><symbol viewBox="0 0 48 48" id="time" xmlns="http://www.w3.org/2000/svg"><path fill-rule="evenodd" clip-rule="evenodd" d="M21.664 2.105C4.084 4.075-4.219 24.943 7.25 38.34c13.239 15.464 38.694 6.126 38.734-14.21C46.01 10.969 34.62.654 21.664 2.105Zm4.9 4.174C38.5 7.917 45.43 20.983 40.133 31.863c-6.548 13.45-25.822 13.414-32.301-.062C1.63 18.903 12.328 4.326 26.562 6.279Zm-3.207 3.834c-.568.177-1.107.727-1.278 1.304-.206.692-.205 12.547 0 13.234.152.509 6.386 6.87 7.065 7.21 1.278.638 2.841-.386 2.841-1.86 0-.805-.192-1.049-3.147-3.997l-2.772-2.765V17.56c0-6.383.005-6.333-.639-6.961-.572-.56-1.292-.728-2.07-.486Z"/></symbol><symbol viewBox="0 0 16 16" id="viber" xmlns="http://www.w3.org/2000/svg"><path d="M8 1.335c-1.071.013-3.374.19-4.662 1.37-.958.948-1.292 2.35-1.331 4.084-.033 1.728-.072 4.973 3.058 5.856v1.346s-.02.538.337.648c.438.14.688-.275 1.105-.72l.778-.879c2.142.178 3.782-.232 3.97-.293.435-.139 2.883-.451 3.283-3.696.41-3.351-.2-5.463-1.301-6.418h-.007c-.332-.306-1.668-1.279-4.652-1.29 0 0-.222-.014-.578-.008Zm.037.942a7.02 7.02 0 0 1 .488.011c2.527.007 3.732.767 4.017 1.023.927.794 1.405 2.697 1.055 5.495-.332 2.713-2.317 2.885-2.685 3.002-.156.05-1.6.406-3.42.289 0 0-1.356 1.634-1.78 2.055-.067.074-.146.095-.196.085-.071-.018-.093-.107-.089-.229l.013-2.233c-2.655-.733-2.498-3.5-2.47-4.946.033-1.446.304-2.628 1.113-3.43 1.088-.982 3.043-1.115 3.953-1.122Zm.2 1.446a.166.166 0 1 0 0 .332 3.136 3.136 0 0 1 2.242.883c.606.588.9 1.378.912 2.411 0 .092.074.167.167.167V7.51a.167.167 0 0 0 .168-.165 3.588 3.588 0 0 0-1.009-2.646c-.66-.645-1.496-.977-2.48-.977Zm-2.198.382a.523.523 0 0 0-.342.067H5.69a2.61 2.61 0 0 0-.637.523 1.003 1.003 0 0 0-.256.525.71.71 0 0 0 .026.302l.01.006c.172.504.396.988.67 1.444a8.48 8.48 0 0 0 1.29 1.762l.015.022.024.017.015.018.017.015c.532.505 1.127.94 1.769 1.295.734.4 1.18.588 1.447.667v.004c.078.024.15.034.221.034.228-.016.444-.109.613-.262a2.53 2.53 0 0 0 .517-.638v-.004c.128-.241.085-.469-.1-.623-.37-.323-.77-.61-1.195-.857-.285-.155-.574-.061-.69.095l-.25.315c-.129.156-.361.134-.361.134l-.007.004C7.093 8.527 6.63 6.772 6.63 6.772s-.022-.239.139-.36l.312-.252c.15-.122.254-.41.094-.695a7.498 7.498 0 0 0-.856-1.194.475.475 0 0 0-.28-.167Zm2.486.495c-.221 0-.221.334.003.334A2.098 2.098 0 0 1 10 5.572 1.94 1.94 0 0 1 10.5 7a.168.168 0 0 0 .167.165l.007.009a.169.169 0 0 0 .167-.167c.015-.662-.191-1.218-.595-1.663C9.84 4.9 9.273 4.65 8.549 4.6h-.024Zm.274.898c-.228-.006-.236.335-.01.341.55.029.816.306.851.877a.166.166 0 0 0 .165.163h.007a.168.168 0 0 0 .16-.178c-.039-.744-.445-1.164-1.166-1.202H8.8Z"/></symbol><symbol viewBox="0 0 24 24" id="vk" xmlns="http://www.w3.org/2000/svg"><path d="M21.579 6.855c.14-.465 0-.806-.662-.806h-2.193c-.558 0-.813.295-.953.619 0 0-1.115 2.719-2.695 4.482-.51.513-.743.675-1.021.675-.139 0-.341-.162-.341-.627V6.855c0-.558-.161-.806-.626-.806H9.642c-.348 0-.558.258-.558.504 0 .528.79.65.871 2.138v3.228c0 .707-.127.836-.407.836-.743 0-2.551-2.73-3.624-5.853-.209-.607-.42-.852-.98-.852H2.752c-.627 0-.752.295-.752.619 0 .582.743 3.462 3.461 7.27 1.812 2.602 4.363 4.012 6.687 4.012 1.393 0 1.565-.313 1.565-.853v-1.966c0-.626.133-.752.574-.752.324 0 .882.164 2.183 1.417 1.486 1.486 1.732 2.153 2.567 2.153h2.192c.626 0 .939-.313.759-.931-.197-.615-.907-1.51-1.849-2.57-.512-.603-1.277-1.253-1.51-1.578-.325-.42-.231-.604 0-.976.001 0 2.672-3.761 2.95-5.04Z"/></symbol><symbol viewBox="0 0 20 20" id="warning" xmlns="http://www.w3.org/2000/svg"><g clip-path="url(#bla)"><path fill-rule="evenodd" clip-rule="evenodd" d="M9.376.65c-.75.165-1.42.63-1.83 1.268-.285.445-7.25 13.29-7.361 13.573-.608 1.564.34 3.384 1.996 3.837.393.108 15.231.108 15.625 0 1.668-.456 2.62-2.316 1.985-3.879-.11-.268-7.11-13.153-7.35-13.53A2.943 2.943 0 0 0 9.375.65Zm1.108 4.838c.238.108.451.319.573.565l.089.18v3.223c0 3.194-.001 3.224-.083 3.4a1.168 1.168 0 0 1-2.14 0c-.081-.176-.082-.206-.082-3.4V6.233l.089-.18c.294-.596.956-.837 1.554-.565Zm0 9.375c.893.406.892 1.676-.002 2.099-.454.215-1.023.104-1.344-.262-.842-.958.188-2.364 1.346-1.837Z"/></g><defs><clipPath id="bla"><path d="M0 0h20v20H0z"/></clipPath></defs></symbol><symbol viewBox="0 0 16 16" id="whatsapp" xmlns="http://www.w3.org/2000/svg"><path fill-rule="evenodd" clip-rule="evenodd" d="M12.269 3.755A5.947 5.947 0 0 0 8.035 2 5.994 5.994 0 0 0 2.05 7.985a5.98 5.98 0 0 0 .799 2.992L2 14.077l3.173-.832c.877.477 1.86.728 2.86.728h.002a5.993 5.993 0 0 0 5.533-8.276 5.953 5.953 0 0 0-1.3-1.942Zm-4.234 9.208h-.002c-.89 0-1.765-.24-2.532-.694l-.181-.108-1.883.494.502-1.835-.118-.188a4.965 4.965 0 0 1-.76-2.647 4.982 4.982 0 0 1 6.88-4.597c.604.25 1.152.618 1.613 1.081a4.946 4.946 0 0 1 1.455 3.52 4.982 4.982 0 0 1-4.974 4.974Zm2.729-3.726c-.15-.075-.885-.436-1.022-.486-.137-.05-.236-.075-.336.074-.1.15-.387.486-.474.586-.087.1-.175.112-.324.038-.15-.075-.631-.233-1.203-.742a4.505 4.505 0 0 1-.832-1.036c-.087-.15-.009-.231.066-.306.068-.066.15-.174.224-.262.075-.087.1-.149.15-.249.05-.1.025-.187-.013-.262-.037-.075-.337-.811-.461-1.11-.121-.29-.244-.252-.336-.256a6.418 6.418 0 0 0-.286-.005.55.55 0 0 0-.4.186c-.137.15-.523.512-.523 1.248s.536 1.447.61 1.547c.075.1 1.055 1.61 2.555 2.258.358.154.636.246.853.315.358.114.684.098.942.06.287-.043.885-.362 1.01-.711.124-.35.124-.649.087-.711-.038-.063-.138-.101-.287-.176Z"/></symbol><symbol viewBox="0 0 24 24" id="workers" xmlns="http://www.w3.org/2000/svg"><g clip-path="url(#bna)"><path fill-rule="evenodd" clip-rule="evenodd" d="M10.535 2.698c-1.02.28-1.867 1.182-2.051 2.187-.058.314-.058.314-.27.393-3.504 1.305-6.115 5.04-6.327 9.052-.056 1.046-.208 1.272-.943 1.4-.432.076-.624.18-.798.435-.134.195-.201 2.476-.09 3.008.163.769.764 1.55 1.455 1.892.677.334-.155.31 10.498.31 10.654 0 9.821.024 10.498-.31.692-.342 1.293-1.123 1.455-1.892.112-.532.044-2.813-.09-3.008-.174-.254-.366-.359-.797-.434-.736-.129-.888-.355-.944-1.4-.178-3.372-1.852-6.317-4.637-8.157-.44-.29-1.74-.97-1.856-.97-.025 0-.071-.142-.103-.316-.185-1.01-1.047-1.928-2.056-2.188-.383-.099-2.586-.1-2.944-.002Zm2.401 1.852a.98.98 0 0 1 .649.5c.084.168.09.383.112 4.212l.023 4.035.113.165c.378.551 1.224.551 1.602 0l.113-.165.024-3.01.023-3.012.445.256c2.555 1.468 4.033 3.989 4.198 7.156.017.33.058.704.092.832l.061.232H3.627l.062-.237c.035-.13.077-.525.094-.879.152-3.172 1.71-5.732 4.393-7.22l.269-.148.012 3.015.013 3.015.113.165c.378.551 1.224.551 1.602 0l.113-.165.024-4.035c.026-4.52.002-4.227.367-4.528.266-.219 1.582-.327 2.247-.184Zm9.198 13.519c0 .873-.212 1.265-.746 1.38-.345.074-18.413.074-18.758 0-.534-.115-.746-.507-.746-1.38v-.443h20.25v.443Z"/></g><defs><clipPath id="bna"><path d="M0 0h24v24H0z"/></clipPath></defs></symbol><symbol viewBox="0 0 20 20" id="write" xmlns="http://www.w3.org/2000/svg"><g clip-path="url(#boa)"><path fill-rule="evenodd" clip-rule="evenodd" d="M10.297.488c-.537.168-.573.215-1.824 2.384-1.016 1.763-1.054 1.822-1.15 1.797-.997-.25-1.316-.134-2.878 1.043-1.598 1.203-1.53 1.117-3.177 4.087C-.065 12.203-.097 12.287.07 13c.172.729.845 1.395 1.498 1.482.196.027.195-.005.01.336-.16.292-.989 3.805-.986 4.175a.57.57 0 0 0 .742.545c.096-.03.434-.305 1.04-.847.495-.442.98-.871 1.078-.955l.178-.152.163.224c.637.875 1.882 1.043 2.76.372l.18-.137.137.12c1.04.913 2.942.23 3.123-1.121.04-.295.029-.288.3-.182 1.761.694 4.018.738 5.848.116l.277-.095v.14c0 .19.137.416.313.515.142.08.194.083 1.484.083 1.511 0 1.541-.006 1.714-.313l.083-.147V7.532l-.088-.156c-.168-.299-.197-.304-1.712-.304-1.691 0-1.794.041-1.794.721v.255h-.792l-2.34-1.215-2.339-1.216.093-.161c1.825-3.162 1.647-2.809 1.647-3.267 0-.65-.216-.94-1.058-1.414-.61-.343-.931-.413-1.333-.287Zm.839 1.35c.48.282.481.288.21.75-.104.178-.262.45-.35.604l-.163.28-.507-.294c-.423-.244-.502-.304-.473-.358.19-.35.683-1.163.719-1.186.089-.057.166-.028.564.205ZM9.817 4.234l.422.243c.006.004-1.008 1.772-2.253 3.929l-2.264 3.92-.688.011-.688.011.056-.089c.031-.048 1.106-1.908 2.388-4.131a1381.91 1381.91 0 0 1 2.388-4.132c.065-.102.019-.12.64.238Zm-3.02 1.54L4.72 9.377c-1.133 1.965-2.105 3.633-2.158 3.705-.45.604-1.468.14-1.365-.623.044-.33 2.358-4.408 2.742-4.833.169-.187 2.049-1.639 2.283-1.764.189-.1.622-.167.576-.089Zm6.07 2.158 2.478 1.288h.537l.537.001-.01 3.212-.01 3.212-.472.164c-2.058.713-4.03.58-6.032-.41L9.29 15.1l-2.676-.02c-2.393-.017-2.688-.026-2.793-.084a.782.782 0 0 1-.064-1.34l.168-.118 2.744-.02 2.744-.02.903-.676c1.11-.832 1.225-1.021.865-1.431-.31-.352-.488-.303-1.417.39l-.757.565h-.965c-.59 0-.96-.014-.953-.037.03-.084 3.257-5.663 3.277-5.664.012-.001 1.137.578 2.5 1.287Zm5.974 4.414v4.102h-1.25V8.244h1.25v4.101Zm-15.599 3.66c.114.06.208.121.208.136 0 .028-1.234 1.136-1.287 1.156-.023.009.201-1.07.37-1.784.022-.089.035-.081.262.145.132.131.333.288.447.347Zm2.895.557c-.014.256-.037.343-.131.495-.478.771-1.752.18-1.316-.61l.108-.195h.679l.678-.001-.018.31Zm2.735 0c-.068 1.174-1.555 1.159-1.555-.017v-.294H8.89l-.018.31Z"/></g><defs><clipPath id="boa"><path d="M0 0h20v20H0z"/></clipPath></defs></symbol></svg>