<svg width="20" height="20" viewBox="0 0 20 20" fill="none" xmlns="http://www.w3.org/2000/svg">
<g clip-path="url(#clip0_152_3054)">
<path fill-rule="evenodd" clip-rule="evenodd" d="M9.02683 0.87717C1.70133 1.69783 -1.75793 10.3929 3.02039 15.9745C8.53656 22.4181 19.1428 18.527 19.1597 10.0536C19.1706 4.57006 14.425 0.272404 9.02683 0.87717ZM11.068 2.61615C16.0415 3.29862 18.9293 8.74283 16.7224 13.2762C13.9941 18.8808 5.96347 18.8653 3.26375 13.2504C0.679685 7.87612 5.13707 1.80233 11.068 2.61615ZM9.73215 4.21389C9.49547 4.28768 9.27086 4.51682 9.19945 4.75725C9.1139 5.04526 9.1141 9.9851 9.19965 10.2711C9.26312 10.4833 11.8605 13.1338 12.1435 13.2753C12.6756 13.5412 13.3273 13.1146 13.3273 12.5003C13.3273 12.1651 13.2472 12.0634 12.0158 10.8351L10.8608 9.68299V7.31678C10.8608 4.65717 10.8627 4.67791 10.5946 4.41615C10.3561 4.18322 10.0561 4.11287 9.73215 4.21389Z" fill="white"/>
</g>
<defs>
<clipPath id="clip0_152_3054">
<rect width="20" height="20" fill="white"/>
</clipPath>
</defs>
</svg>
