<svg width="96" height="96" viewBox="0 0 96 96" fill="none" xmlns="http://www.w3.org/2000/svg">
<g id="4213460-account-avatar-head-person-profile-user_115386 1">
<g id="Group">
<path id="Vector" d="M22.5 36.75C22.5 50.775 33.975 62.25 48 62.25C62.025 62.25 73.5 50.775 73.5 36.75C73.5 22.725 62.025 11.25 48 11.25C33.975 11.25 22.5 22.725 22.5 36.75ZM67.5 36.75C67.5 47.475 58.725 56.25 48 56.25C37.275 56.25 28.5 47.475 28.5 36.75C28.5 26.025 37.275 17.25 48 17.25C58.725 17.25 67.5 26.025 67.5 36.75Z" fill="white"/>
<path id="Vector_2" d="M18.3004 89.55C26.2504 81.6 36.7504 77.25 48.0004 77.25C59.2504 77.25 69.7504 81.6 77.7004 89.55L81.9754 85.275C72.9004 76.275 60.8254 71.25 48.0004 71.25C35.1754 71.25 23.1004 76.275 14.0254 85.275L18.3004 89.55Z" fill="white"/>
</g>
</g>
</svg>
